<?xml version="1.0" encoding="UTF-8"?>
<svg width="66px" height="50px" viewBox="0 0 66 50" version="1.1" xmlns="http://www.w3.org/2000/svg" xmlns:xlink="http://www.w3.org/1999/xlink">
    <!-- Generator: Sketch 61 (89581) - https://sketch.com -->
    <title>Group 7 Copy</title>
    <desc>Created with Sketch.</desc>
    <g id="Page-1" stroke="none" stroke-width="1" fill="none" fill-rule="evenodd">
        <g id="c_p3" transform="translate(-1028.000000, -344.000000)">
            <g id="Group-7-Copy" transform="translate(1028.000000, 344.000000)">
                <path d="M2.51872,14.6081 L55.16738,14.6081 L55.16738,10.75182 L2.51872,10.75182 L2.51872,14.6081 Z M5.41076,2.52144 L52.27296,2.52144 C53.84138,2.52144 55.16704,3.84608 55.16704,5.41314 L55.16704,8.23072 L2.51872,8.23072 L2.51872,5.41314 C2.51872,3.84608 3.84438,2.52144 5.41076,2.52144 L5.41076,2.52144 Z M52.27296,-9.66338121e-15 L5.41076,-9.66338121e-15 C2.47792,-9.66338121e-15 0,2.47928 0,5.41314 L0,35.74012 C0,38.72498 2.42658,41.15326 5.41076,41.15326 L44.63486,41.15326 C45.3322,41.15326 45.89422,40.58852 45.89422,39.89254 C45.89422,39.19622 45.3322,38.63182 44.63486,38.63182 L5.41076,38.63182 C3.8165,38.63182 2.51872,37.33438 2.51872,35.74012 L2.51872,17.1292 L55.16704,17.1292 L55.16704,22.34072 C55.16704,23.0367 55.72906,23.6011 56.4264,23.6011 C57.12374,23.6011 57.68576,23.0367 57.68576,22.34072 L57.68576,5.41314 C57.68576,2.47928 55.20818,-9.66338121e-15 52.27296,-9.66338121e-15 L52.27296,-9.66338121e-15 Z" id="Fill-1" fill="#00ADEE"></path>
                <path d="M21.575244,28.99231 L7.413224,28.99231 C6.715884,28.99231 6.153864,28.42791 6.153864,27.73193 C6.153864,27.03561 6.715884,26.47121 7.413224,26.47121 L21.575244,26.47121 C22.272924,26.47121 22.834604,27.03561 22.834604,27.73193 C22.834604,28.42791 22.272924,28.99231 21.575244,28.99231" id="Fill-3" fill="#00ADEE"></path>
                <path d="M14.455814,34.479434 L7.413054,34.479434 C6.715714,34.479434 6.153694,33.915034 6.153694,33.218714 C6.153694,32.522734 6.715714,31.958334 7.413054,31.958334 L14.455814,31.958334 C15.153494,31.958334 15.715174,32.522734 15.715174,33.218714 C15.715174,33.915034 15.153494,34.479434 14.455814,34.479434" id="Fill-4" fill="#00ADEE"></path>
                <path d="M54.349714,38.261288 C53.652034,38.261288 53.090354,38.826028 53.090354,39.522008 L53.090354,42.339588 C53.090354,43.035908 53.652034,43.600308 54.349714,43.600308 C55.047054,43.600308 55.609074,43.035908 55.609074,42.339588 L55.609074,39.522008 C55.609074,38.826028 55.047054,38.261288 54.349714,38.261288" id="Fill-5" fill="#0855C4"></path>
                <path d="M62.802556,45.60182 C62.802556,46.39232 62.181716,47.01078 61.392576,47.01078 L47.304336,47.01078 C46.514856,47.01078 45.894356,46.39232 45.894356,45.60182 L45.894356,36.18484 C45.894356,35.46166 46.540356,34.85136 47.304336,34.85136 L61.392576,34.85136 C62.169136,34.85136 62.802556,35.44908 62.802556,36.18484 L62.802556,45.60182 Z M49.232816,28.3254 C49.232816,26.1953 51.033796,24.39568 53.161856,24.39568 L56.204176,24.39568 C58.332236,24.39568 60.132876,26.1953 60.132876,28.3254 L60.132876,32.32992 L49.232816,32.32992 L49.232816,28.3254 Z M62.651936,32.53664 L62.651936,28.3254 C62.651936,24.8285 59.698696,21.87424 56.204176,21.87424 L53.161856,21.87424 C49.666996,21.87424 46.714436,24.8285 46.714436,28.3254 L46.714436,32.3782 C44.827776,32.65904 43.375296,34.2567 43.375296,36.18484 L43.375296,45.60182 C43.375296,47.76932 45.138196,49.53188 47.304336,49.53188 L61.392576,49.53188 C63.558716,49.53188 65.320936,47.76932 65.320936,45.60182 L65.320936,36.18484 C65.320936,34.49164 64.201316,33.05344 62.651936,32.53664 L62.651936,32.53664 Z" id="Fill-6" fill="#0855C4"></path>
            </g>
        </g>
    </g>
</svg>