<svg xmlns="http://www.w3.org/2000/svg" xmlns:xlink="http://www.w3.org/1999/xlink" version="1.1" id="Capa_1" x="0px" y="0px" viewBox="0 0 2431.2 758.8" style="enable-background:new 0 0 2431.2 758.8;" xml:space="preserve">
<style type="text/css">
	.st0{fill:#E4F6FC;}
	.st1{fill:#EFF1F4;}
	.st2{fill:#C9CED6;}
	.st3{display:none;fill:#00ADEE;}
	.st4{display:none;fill:#FFFFFF;}
	.st5{fill:none;stroke:#808A91;stroke-miterlimit:10;}
	.st6{fill:#FFFFFF;stroke:#808A91;stroke-miterlimit:10;}
	.st7{opacity:0.47;fill:#FFFFFF;enable-background:new    ;}
	.st8{fill:#FFFFFF;stroke:#808A91;stroke-width:3;stroke-miterlimit:10;}
	.st9{fill:#FFFFFF;stroke:#6E777E;stroke-miterlimit:10;}
	.st10{fill:none;stroke:#808A91;stroke-width:3;stroke-miterlimit:10;}
	.st11{fill:none;stroke:#535D66;stroke-width:2.5;stroke-miterlimit:10;}
	.st12{fill:#FFFFFF;stroke:#535D66;stroke-width:2.5;stroke-miterlimit:10;}
	.st13{fill:#EFF1F4;stroke:#535D66;stroke-width:2.5;stroke-miterlimit:10;}
	.st14{fill:#EA0C90;}
	.st15{fill:#D6058B;}
	.st16{fill:#C90583;}
	.st17{fill:none;stroke:#EA0C90;stroke-width:3;stroke-miterlimit:10;}
	.st18{fill:#535D66;}
	.st19{fill:#00ADEE;}
	.st20{opacity:0.24;fill:#00ADEE;enable-background:new    ;}
	.st21{fill:none;stroke:#00ADEE;stroke-width:2.5;stroke-miterlimit:10;}
	.st22{fill:#FFFFFF;stroke:#00ADEE;stroke-width:2.5;stroke-miterlimit:10;}
	.st23{fill:none;stroke:#00ADEE;stroke-width:3;stroke-miterlimit:10;}
	.st24{fill:none;}
	.st25{fill:#FFFFFF;stroke:#00ADEE;stroke-width:3;stroke-miterlimit:10;}
	.st26{fill:#FFFFFF;stroke:#FFFFFF;stroke-width:3;stroke-miterlimit:10;}
	.st27{opacity:0.62;fill:#FFFFFF;enable-background:new    ;}
	.st28{opacity:0.31;fill:#00ADEE;enable-background:new    ;}
	.st29{opacity:0.35;fill:#00ADEE;enable-background:new    ;}
	.st30{opacity:0.22;fill:#00ADEE;enable-background:new    ;}
	.st31{fill:#FFFFFF;}
	.st32{fill:none;stroke:#00ADEE;stroke-width:2;stroke-miterlimit:10;}
	.st33{fill:#F9F9F9;}
	.st34{fill:#D5D9DB;}
	.st35{fill:#0855C4;}
	.st36{fill:#8B9DA5;}
	.st37{fill:#A3056B;}
	.st38{opacity:0.24;}
	.st39{fill:none;stroke:#EFF1F4;stroke-width:3;stroke-miterlimit:10;}
	.st40{fill:none;stroke:#FFFFFF;stroke-width:2;stroke-miterlimit:10;}
	.st41{fill:#AEE5FA;}
	.st42{fill:#84D7F7;}
	.st43{fill:#FFFCE5;}
	.st44{fill:#D9F6FF;}
	.st45{fill:none;stroke:#00ADEE;stroke-miterlimit:10;}
	.st46{opacity:0.28;fill:#00ADEE;enable-background:new    ;}
	.st47{opacity:0.26;fill:#D5D9DB;enable-background:new    ;}
</style>
<g>
	<path class="st0" d="M2825.5,292.5c-6.1-0.7-12.2-1.1-18.7-1.1c-63.1,0-116.7,39.9-136.5,96.2c-9-3.6-19-5.4-29.5-5.4   c-27,0-51.2,13.2-65.2,33.9c-10.8-5.4-22.7-7.9-35.7-7.9c-12.6,0-24.5,2.9-35.3,7.9c-16.6-20.8-41.8-33.9-70.7-33.9   c-38.2,0-70.7,23.8-84.2,57.2c-11.5-6.1-24.5-9.3-38.5-9.3c-6.9,0-13.2,0.7-19.8,2.5c-13.2-28.5-42.2-48.2-75.6-48.2   c-30.6,0-57.6,16.6-72,41.8c-19-18.7-45.4-30.6-74.6-30.6c-15.5,0-30.3,3.2-43.6,9.3c-15.5-25.3-43.3-42.2-75.2-42.2   c-20.8,0-39.9,7.2-54.7,19.5c-16.6-52.3-65.2-90-123.2-90c-64.4,0-117.4,46.8-127.5,108.4c-14.5-6.9-30.3-10.8-47.2-10.8   c-50.8,0-93.2,34.9-105.3,81.8c-8.3-2.5-16.6-3.9-25.9-3.9c-11.9,0-23.1,2.5-33.5,6.9c-24.5-39.2-67.8-65.2-117.4-65.2   c-51.5,0-96.9,28.5-120.3,70.7c-12.6-7.6-27.4-11.9-43.3-11.9c-9,0-17.7,1.4-25.9,3.9c-11.9-46.8-54.4-81.8-105.3-81.8   c-16.9,0-32.8,3.9-47.2,10.8c-10.1-61.6-63.4-108.4-127.5-108.4c-57.6,0-106.6,37.8-123.2,90c-15.1-11.9-34.3-19.5-54.7-19.5   c-32.1,0-59.9,16.9-75.2,42.2c-13.2-5.8-28-9.3-43.6-9.3c-29.2,0-55.4,11.9-74.6,30.6c-14.5-24.9-41.5-41.8-72-41.8   c-33.5,0-62.3,19.8-75.6,48.2c-6.6-1.4-12.9-2.5-19.8-2.5c-13.7,0-27,3.6-38.5,9.3c-13.2-33.5-46.1-57.2-84.2-57.2   c-28.5,0-54.1,13.2-70.7,33.9c-10.8-5.1-22.7-7.9-35.3-7.9c-12.9,0-24.9,2.9-35.7,7.9C28.1,396,4.4,382.6-22.7,382.6   c-10.5,0-20.1,2.1-29.5,5.4c-18.7-55.9-72.4-96.2-135.1-96.2c-6.6,0-12.6,0.7-18.7,1.1V656l3043,6.3l-10.3-369.7L2825.5,292.5   L2825.5,292.5z"/>
</g>
<g>
	<path class="st1" d="M3766.1,3771h-30.6h-52.9h-3.6h-55.7h-67.5h-17.4h-612.3h-109h-31.4h-5.3h-66.1c-9.9,0-18,8-18,17.8   s8,17.8,18,17.8h45.2c9.8,0,17.8,7.8,18,17.4c0.2,9.9-7.9,18.1-18,18.1h-28.2h-3.9c-9.9,0-18,8-18,17.8s8,17.8,18,17.8h12.1l0,0   c9.9,0,18,8,18,17.8s-8,17.8-18,17.8h-16.6h-18.1c-0.8,0-1.5,0.1-2.2,0.1h-28.7c-9.9,0-17.9,7.9-17.9,17.7s8,17.7,17.9,17.7h30.6   h52.9h3.6h9.2h46.5h0.3h109h612.3h17.4h98.6h7.9h63.5c9.9,0,18-8,18-17.8s-8-17.8-18-17.8h-45.2c-9.8,0-17.8-7.8-18-17.4   c-0.2-9.9,7.9-18.1,18-18.1h28.2h3.9c9.9,0,18-8,18-17.8s-8-17.8-18-17.8h-12.1l0,0c-9.9,0-18-8-18-17.8s8-17.8,18-17.8h16.6h18.1   c0.8,0,1.5-0.1,2.2-0.1h28.7c9.9,0,17.9-7.9,17.9-17.7S3776,3771,3766.1,3771z"/>
</g>
<g>
	<path class="st2" d="M2960.8,3867.9h638.6c2.6,0,4.7,2.1,4.7,4.7l0,0c0,2.6-2.1,4.7-4.7,4.7h-638.6c-2.6,0-4.7-2.1-4.7-4.7l0,0   C2956.1,3870,2958.2,3867.9,2960.8,3867.9z"/>
</g>
<rect x="335.3" y="2970.6" class="st3" width="2081" height="1090"/>
<rect x="496.3" y="-100.9" class="st3" width="1920" height="841"/>
<rect x="496.3" y="676.6" class="st4" width="1920" height="63.4"/>
<rect x="4268.7" y="309.3" class="st5" width="204.4" height="336.4"/>
<rect x="4268.7" y="295.7" class="st6" width="204.4" height="13.6"/>
<rect x="4287.9" y="281.6" class="st5" width="163.6" height="14.1"/>
<line class="st5" x1="4369.7" y1="281.6" x2="4369.7" y2="238.2"/>
<line class="st5" x1="5339.1" y1="367.4" x2="5339.1" y2="316.1"/>
<polygon class="st7" points="4327.1,532.2 4302.7,530.9 4456.7,321.8 4471.9,321.8 4471.9,336.7 "/>
<polygon class="st7" points="4391,532.2 4359.3,530.5 4464.3,388 4471.9,388 4471.9,422.3 4471.9,422.3 "/>
<line class="st5" x1="4408.8" y1="309.3" x2="4408.8" y2="534"/>
<line class="st5" x1="4335.8" y1="309.3" x2="4335.8" y2="534"/>
<line class="st5" x1="4268.7" y1="488" x2="4472.2" y2="488"/>
<line class="st5" x1="4268.7" y1="386.6" x2="4472.2" y2="386.6"/>
<line class="st5" x1="4268.7" y1="344.1" x2="4472.2" y2="344.1"/>
<rect x="4268.7" y="430.3" class="st6" width="204.4" height="13.9"/>
<rect x="4268.7" y="531.1" class="st6" width="204.4" height="13.9"/>
<path class="st8" d="M4355,472.1"/>
<path class="st8" d="M4368.6,455.8"/>
<rect x="5270.2" y="368.8" class="st5" width="135" height="276.8"/>
<g>
	<g>
		<line class="st5" x1="5269.2" y1="622.8" x2="5405.6" y2="622.8"/>
	</g>
	<g>
		<line class="st5" x1="5269.2" y1="599.8" x2="5405.6" y2="599.8"/>
	</g>
	<g>
		<line class="st5" x1="5269.2" y1="576.8" x2="5405.6" y2="576.8"/>
	</g>
	<g>
		<line class="st5" x1="5269.2" y1="553.8" x2="5405.6" y2="553.8"/>
	</g>
	<g>
		<line class="st5" x1="5269.2" y1="530.8" x2="5405.6" y2="530.8"/>
	</g>
	<g>
		<line class="st5" x1="5269.2" y1="507.8" x2="5405.6" y2="507.8"/>
	</g>
	<g>
		<line class="st5" x1="5269.2" y1="484.8" x2="5405.6" y2="484.8"/>
	</g>
	<g>
		<line class="st5" x1="5269.2" y1="461.8" x2="5405.6" y2="461.8"/>
	</g>
	<g>
		<line class="st5" x1="5269.2" y1="438.8" x2="5405.6" y2="438.8"/>
	</g>
	<g>
		<line class="st5" x1="5269.2" y1="415.8" x2="5405.6" y2="415.8"/>
	</g>
	<g>
		<line class="st5" x1="5269.2" y1="392.8" x2="5405.6" y2="392.8"/>
	</g>
</g>
<rect x="5377.9" y="425.6" class="st6" width="146.8" height="219.6"/>
<path class="st9" d="M5180.4,478.6c-0.6,0-1.1,0.1-1.7,0.2c-1-3.5-4.2-6-8.1-6c-0.7,0-1.3,0.1-1.9,0.2c-1.2-4.9-5.6-8.6-10.9-8.6  c-6.1,0-11,4.8-11.2,10.8c-1.3-0.6-2.7-1-4.3-1c-5.4,0-9.8,4.4-9.8,9.8c0,1.7,0.4,3.3,1.2,4.7h17.3h16h4.3h2.8h15.1h0.1  c0-0.4,0.1-0.7,0.1-1.1C5189.5,482.6,5185.4,478.6,5180.4,478.6z"/>
<line class="st5" x1="5672.1" y1="645.8" x2="3798.4" y2="645.8"/>
<circle class="st6" cx="4522.2" cy="580.8" r="30.5"/>
<line class="st5" x1="4522.2" y1="576" x2="4522.2" y2="647"/>
<line class="st5" x1="4522.2" y1="596.6" x2="4538.3" y2="587.2"/>
<line class="st5" x1="4522.2" y1="582.8" x2="4506" y2="573.4"/>
<line class="st10" x1="5189.5" y1="606.6" x2="5202" y2="599.3"/>
<line class="st10" x1="5189.5" y1="595.9" x2="5177" y2="588.6"/>
<path class="st6" d="M4984.8,610.6l-0.4-1.3c-0.6-3.2-2.4-6-5-7.9c-2-1.4-4.3-2.1-6.6-2.2l-28-2.4v-0.1h-1l-2.2-0.2l-14-14  c-2.6-2.6-6-4-9.7-4h-43h-2l-1.5,1.3l-19.3,16.9h-0.6h-1.5v0.1l-10.7,0.9l-0.9,0.1l-0.4,0.2l-0.8,0.1l-1.5,0.2  c-3.4,0.4-6.1,3.1-6.5,6.5l0,0l0,0l-1,9.1c-2.2,1.3-3.7,3.7-3.7,6.4v1.6c0,6.5,4,9.7,7.5,11.8l0.8,0.5c2.4,1.4,5.1,2.2,7.9,2.2h2.8  h1.9c2.8,5,8.1,8.3,14.2,8.3s11.4-3.4,14.2-8.3h2h62.4h2.2c2.8,5,8.1,8.3,14.2,8.3c6.2,0,11.6-3.5,14.4-8.7l1.5,0.1l1.8,0.2h0.3h0.3  c4.2,0,8.2-1.7,11.1-4.8c2.5-2.7,5-5.7,5-11.1v-3.1C4988.6,614.6,4987.1,612,4984.8,610.6z"/>
<line class="st5" x1="4943.7" y1="596.7" x2="4849.8" y2="596.7"/>
<line class="st5" x1="4898.1" y1="578.4" x2="4898.1" y2="595.4"/>
<line class="st5" x1="4899" y1="604.8" x2="4899" y2="627.5"/>
<path class="st6" d="M4954,645.3c-7.4,0-13.6-5.2-15-12.2c0-0.6,0.1-2.3,0.1-3.1c0-0.9,0.1-1.8,0.1-2.1c0-6.5,7.4-12.9,14.9-12.9  c7.2,0,14.9,7.1,14.9,13.9c0,0.3,0,1.1,0.1,1.9c0,0.4,0,0.9,0.1,1.3C4968,639.6,4961.7,645.3,4954,645.3z"/>
<path class="st6" d="M4859.6,644.9c-7.3,0-13.4-5.2-14.8-12.1c0-0.6,0.1-2.2,0.1-3c0-0.9,0.1-1.7,0.1-2.1c0-6.4,7.3-12.7,14.7-12.7  c7.2,0,14.7,7,14.7,13.7c0,0.3,0,1,0.1,1.9c0,0.4,0,0.9,0.1,1.3C4873.4,639.3,4867.2,644.9,4859.6,644.9z"/>
<g>
	<g>
		<g>
			<rect x="5483.2" y="587.3" class="st5" width="12.7" height="21.3"/>
		</g>
		<g>
			<rect x="5457.2" y="587.3" class="st5" width="12.7" height="21.3"/>
		</g>
		<g>
			<rect x="5431.2" y="587.3" class="st5" width="12.7" height="21.3"/>
		</g>
		<g>
			<rect x="5405.2" y="587.3" class="st5" width="12.7" height="21.3"/>
		</g>
	</g>
	<g>
		<g>
			<rect x="5483.2" y="554.3" class="st5" width="12.7" height="21.3"/>
		</g>
		<g>
			<rect x="5457.2" y="554.3" class="st5" width="12.7" height="21.3"/>
		</g>
		<g>
			<rect x="5431.2" y="554.3" class="st5" width="12.7" height="21.3"/>
		</g>
		<g>
			<rect x="5405.2" y="554.3" class="st5" width="12.7" height="21.3"/>
		</g>
	</g>
	<g>
		<g>
			<rect x="5483.2" y="521.3" class="st5" width="12.7" height="21.3"/>
		</g>
		<g>
			<rect x="5457.2" y="521.3" class="st5" width="12.7" height="21.3"/>
		</g>
		<g>
			<rect x="5431.2" y="521.3" class="st5" width="12.7" height="21.3"/>
		</g>
		<g>
			<rect x="5405.2" y="521.3" class="st5" width="12.7" height="21.3"/>
		</g>
	</g>
	<g>
		<g>
			<rect x="5483.2" y="488.3" class="st5" width="12.7" height="21.3"/>
		</g>
		<g>
			<rect x="5457.2" y="488.3" class="st5" width="12.7" height="21.3"/>
		</g>
		<g>
			<rect x="5431.2" y="488.3" class="st5" width="12.7" height="21.3"/>
		</g>
		<g>
			<rect x="5405.2" y="488.3" class="st5" width="12.7" height="21.3"/>
		</g>
	</g>
	<g>
		<g>
			<rect x="5483.2" y="455.3" class="st5" width="12.7" height="21.3"/>
		</g>
		<g>
			<rect x="5457.2" y="455.3" class="st5" width="12.7" height="21.3"/>
		</g>
		<g>
			<rect x="5431.2" y="455.3" class="st5" width="12.7" height="21.3"/>
		</g>
		<g>
			<rect x="5405.2" y="455.3" class="st5" width="12.7" height="21.3"/>
		</g>
	</g>
</g>
<path class="st9" d="M5533.8,634.5c-1.8-5.7-7.2-9.9-13.5-9.9c-6.4,0-11.9,4.3-13.6,10.2c-0.8-0.2-1.6-0.3-2.5-0.3  c-5.6,0-10.1,4.5-10.1,10.1c0,0.4,0,0.7,0.1,1.1h13.8h6.3h9.2h9.1h11c0-0.3,0.1-0.7,0.1-1.1C5543.7,639,5539.3,634.6,5533.8,634.5z"/>
<path class="st9" d="M5205.4,577c2.1-2.8,3.4-6.1,3.4-9.7c0-9.4-8.7-17.1-19.4-17.1s-19.4,7.6-19.4,17.1c0,3.6,1.3,6.9,3.4,9.7  c-4.7,4.3-7.7,10.5-7.7,17.4c0,13,10.6,23.6,23.6,23.6s23.6-10.6,23.6-23.6C5213.1,587.5,5210.1,581.3,5205.4,577z"/>
<line class="st5" x1="5189.5" y1="590.7" x2="5189.5" y2="645.6"/>
<polygon class="st1" points="1211,2790 1803,2744.2 1211,2744.2 "/>
<line class="st11" x1="1211" y1="2744.2" x2="1211" y2="2842"/>
<path class="st1" d="M2205.9,2705.2h93.5c8.3,0,15-6.7,15-15l0,0c0-8.3-6.7-15-15-15H1098.5v68.8H2303c6.3,0,11.4-5.1,11.4-11.4l0,0  c0-6.3-5.1-11.4-11.4-11.4h-97.1c-4.5,0-8.1-3.6-8.1-8.1l0,0C2197.8,2708.9,2201.4,2705.2,2205.9,2705.2z"/>
<polyline class="st12" points="2355.6,2477.9 1645.6,2478.3 1098.7,2675 2228.1,2675 "/>
<ellipse class="st1" cx="1491.8" cy="2606.1" rx="116" ry="42.2"/>
<polyline class="st11" points="1098.5,2675.3 1098.5,2744.2 1930.1,2744.2 "/>
<line class="st11" x1="1098.5" y1="2711.6" x2="1184" y2="2711.6"/>
<polygon class="st12" points="2153.3,2599.7 1612.3,2599.7 1780.5,2499.5 2301.3,2499.5 "/>
<rect x="1782.2" y="2208.4" class="st12" width="520.9" height="291"/>
<rect x="1614.1" y="2599.5" class="st13" width="539" height="18.2"/>
<path class="st13" d="M2153.9,2617.8l149.2-102.9v-16l-150,101.3v17.2C2153.1,2617.8,2153.6,2618,2153.9,2617.8z"/>
<rect x="1803" y="2227.4" class="st12" width="480" height="250.7"/>
<path class="st14" d="M2093.4,2437.6h-108.7c-8.5,0-15.5-7-15.5-15.5l0,0c0-8.5,7-15.5,15.5-15.5h108.7c8.5,0,15.5,7,15.5,15.5l0,0  C2108.9,2430.7,2101.9,2437.6,2093.4,2437.6z"/>
<path class="st15" d="M1938,2437.6h-108.7c-8.5,0-15.5-7-15.5-15.5l0,0c0-8.5,7-15.5,15.5-15.5H1938c8.5,0,15.5,7,15.5,15.5l0,0  C1953.5,2430.7,1946.5,2437.6,1938,2437.6z"/>
<path class="st16" d="M2252.7,2437.6H2144c-8.5,0-15.5-7-15.5-15.5l0,0c0-8.5,7-15.5,15.5-15.5h108.7c8.5,0,15.5,7,15.5,15.5l0,0  C2268.2,2430.7,2261.2,2437.6,2252.7,2437.6z"/>
<polyline class="st12" points="2187.7,2538.8 2221,2516.8 1790.4,2516.8 1725,2560.9 2141,2560.9 "/>
<line class="st11" x1="1767.9" y1="2531.9" x2="2092.4" y2="2531.9"/>
<line class="st11" x1="1789.9" y1="2547.3" x2="2114.4" y2="2547.3"/>
<line class="st11" x1="1883.6" y1="2516.8" x2="1861.6" y2="2531.6"/>
<line class="st11" x1="1980.1" y1="2531.4" x2="1958.1" y2="2546.3"/>
<path class="st12" d="M1511.3,2626.8l-121.2-9.1c-0.7-0.1-0.9-1-0.3-1.3l129.4-65.6l96.7,10.5c0.3,0,0.5,0.5,0.2,0.7L1511.3,2626.8z  "/>
<path class="st13" d="M1509.3,2640.5l-113.6-8.5c-3.6-0.3-6.3-3.4-6-7l0.5-7.2l120.7,9l-1,13.3  C1509.8,2640.3,1509.6,2640.5,1509.3,2640.5z"/>
<path class="st12" d="M1510.2,2640.3l100.8-63c3.1-2,5.2-5.3,5.4-9l0.4-4.9c0.1-0.8-0.8-1.4-1.6-1l-104.5,64.3l-1,13.3  C1509.8,2640.3,1510,2640.4,1510.2,2640.3z"/>
<polygon class="st12" points="2140.8,2273 1930.1,2273 1930.1,2363.5 2006.9,2363.5 2039.7,2391.6 2064.8,2363.5 2140.8,2363.5 "/>
<path class="st17" d="M1977.4,2301.9c1.5-0.5,119.5,0,119.5,0"/>
<path class="st17" d="M1977.4,2318.1c1.5-0.5,119.5,0,119.5,0"/>
<path class="st17" d="M1977.4,2336.1c1.5-0.5,119.5,0,119.5,0"/>
<line class="st11" x1="2622.9" y1="2709.7" x2="2482.6" y2="2709.7"/>
<polyline class="st1" points="1509.9,2613.8 1426.2,2607.4 1521.4,2558.8 1585.8,2566.3 "/>
<ellipse transform="matrix(7.458131e-02 -0.9972 0.9972 7.458131e-02 -1258.1512 3876.6184)" class="st18" cx="1459.6" cy="2616.2" rx="3.4" ry="7.1"/>
<ellipse transform="matrix(0.9993 -3.644497e-02 3.644497e-02 0.9993 -92.8701 57.4556)" class="st19" cx="1529.5" cy="2576.1" rx="26.9" ry="12.5"/>
<line class="st11" x1="2283" y1="2675" x2="2355.6" y2="2675"/>
<polygon class="st20" points="423.3,300.8 450.2,309.8 435.2,314.9 417.5,302.3 "/>
<rect x="505.8" y="586.8" class="st20" width="145" height="72"/>
<rect x="497.5" y="585.8" class="st21" width="153.3" height="72.5"/>
<polygon class="st22" points="505.8,585.8 664.5,585.8 641.6,551.3 505.8,551.3 "/>
<rect x="561.3" y="610.5" class="st22" width="30.3" height="47.9"/>
<rect x="605.4" y="603.2" class="st22" width="30.7" height="33.6"/>
<line class="st21" x1="605.4" y1="621.3" x2="636.1" y2="621.3"/>
<line class="st21" x1="620.7" y1="603.2" x2="620.7" y2="620"/>
<rect x="515.3" y="603.2" class="st22" width="30.7" height="33.6"/>
<line class="st23" x1="515.3" y1="621.3" x2="546.1" y2="621.3"/>
<line class="st21" x1="530.6" y1="603.2" x2="530.6" y2="620"/>
<line class="st21" x1="585.9" y1="634.5" x2="579.8" y2="634.5"/>
<g>
	<g>
		<line class="st24" x1="489" y1="551.3" x2="511.3" y2="585.8"/>
		<line class="st21" x1="489" y1="551.3" x2="511.3" y2="585.8"/>
	</g>
	<g>
		<line class="st24" x1="508.2" y1="551.3" x2="530.5" y2="585.8"/>
		<line class="st21" x1="508.2" y1="551.3" x2="530.5" y2="585.8"/>
	</g>
	<g>
		<line class="st24" x1="527.4" y1="551.3" x2="549.7" y2="585.8"/>
		<line class="st21" x1="527.4" y1="551.3" x2="549.7" y2="585.8"/>
	</g>
	<g>
		<line class="st24" x1="546.6" y1="551.3" x2="569" y2="585.8"/>
		<line class="st21" x1="546.6" y1="551.3" x2="569" y2="585.8"/>
	</g>
	<g>
		<line class="st24" x1="565.8" y1="551.3" x2="588.2" y2="585.8"/>
		<line class="st21" x1="565.8" y1="551.3" x2="588.2" y2="585.8"/>
	</g>
	<g>
		<line class="st24" x1="585" y1="551.3" x2="607.4" y2="585.8"/>
		<line class="st21" x1="585" y1="551.3" x2="607.4" y2="585.8"/>
	</g>
	<g>
		<line class="st24" x1="604.3" y1="551.3" x2="626.6" y2="585.8"/>
		<line class="st21" x1="604.3" y1="551.3" x2="626.6" y2="585.8"/>
	</g>
	<g>
		<line class="st24" x1="623.5" y1="551.3" x2="645.8" y2="585.8"/>
		<line class="st21" x1="623.5" y1="551.3" x2="645.8" y2="585.8"/>
	</g>
</g>
<rect x="476.5" y="510.2" class="st25" width="24.3" height="19.4"/>
<rect x="89" y="222.4" class="st20" width="196.1" height="16.9"/>
<rect x="310.8" y="473.2" class="st25" width="198.1" height="185.8"/>
<rect x="309.8" y="485.9" class="st20" width="185" height="173"/>
<rect x="83.1" y="270.5" class="st20" width="226.6" height="388.1"/>
<rect x="65.9" y="255.5" class="st21" width="244.9" height="403.1"/>
<rect x="65.9" y="239.2" class="st22" width="244.9" height="16.3"/>
<rect x="89" y="222.4" class="st21" width="196.1" height="16.9"/>
<line class="st21" x1="187" y1="222.4" x2="187" y2="170.4"/>
<line class="st21" x1="1954.9" y1="377.5" x2="1954.9" y2="330.6"/>
<polygon class="st7" points="135.8,522.6 106.6,521 291.2,270.5 309.4,270.5 309.5,288.3 "/>
<polygon class="st7" points="212.5,522.6 174.4,520.6 300.3,349.8 309.5,349.8 309.5,390.9 309.5,390.9 "/>
<line class="st23" x1="233.7" y1="255.5" x2="233.7" y2="524.7"/>
<line class="st23" x1="146.3" y1="255.5" x2="146.3" y2="524.7"/>
<line class="st21" x1="65.9" y1="469.6" x2="309.8" y2="469.6"/>
<line class="st21" x1="65.9" y1="348.1" x2="309.8" y2="348.1"/>
<line class="st21" x1="65.9" y1="297.2" x2="309.8" y2="297.2"/>
<rect x="65.9" y="400.5" class="st22" width="244.9" height="16.7"/>
<rect x="65.9" y="521.3" class="st22" width="244.9" height="16.7"/>
<path class="st26" d="M169.3,450.5"/>
<path class="st26" d="M185.6,431.1"/>
<g>
	<rect x="1885.3" y="380.2" class="st20" width="136.5" height="279.6"/>
	<rect x="1885.3" y="378.9" class="st21" width="136.5" height="279.9"/>
	<polygon class="st27" points="1886.8,681.6 1886.8,613.2 1979.7,380.2 2006.4,380.2  "/>
	<polygon class="st27" points="1942.6,684.8 1901.9,684.8 2020.3,387.7 2020.3,413.1 2020,482.4  "/>
	<g>
		<g>
			<line class="st21" x1="1884.3" y1="635.8" x2="2022.3" y2="635.8"/>
		</g>
		<g>
			<line class="st21" x1="1884.3" y1="612.5" x2="2022.3" y2="612.5"/>
		</g>
		<g>
			<line class="st21" x1="1884.3" y1="589.3" x2="2022.3" y2="589.3"/>
		</g>
		<g>
			<line class="st21" x1="1884.3" y1="566" x2="2022.3" y2="566"/>
		</g>
		<g>
			<line class="st21" x1="1884.3" y1="542.7" x2="2022.3" y2="542.7"/>
		</g>
		<g>
			<line class="st21" x1="1884.3" y1="519.5" x2="2022.3" y2="519.5"/>
		</g>
		<g>
			<line class="st21" x1="1884.3" y1="496.2" x2="2022.3" y2="496.2"/>
		</g>
		<g>
			<line class="st21" x1="1884.3" y1="473" x2="2022.3" y2="473"/>
		</g>
		<g>
			<line class="st21" x1="1884.3" y1="449.7" x2="2022.3" y2="449.7"/>
		</g>
		<g>
			<line class="st21" x1="1884.3" y1="426.4" x2="2022.3" y2="426.4"/>
		</g>
		<g>
			<line class="st21" x1="1884.3" y1="403.2" x2="2022.3" y2="403.2"/>
		</g>
	</g>
</g>
<rect x="2337.5" y="408" class="st21" width="95.1" height="250.9"/>
<polygon class="st28" points="2421.8,657.8 2337.5,657.8 2337.5,421.2 2421.2,421.2 "/>
<rect x="2386.8" y="450.1" class="st19" width="12.8" height="17.1"/>
<rect x="2386.8" y="487" class="st19" width="12.8" height="17.1"/>
<rect x="2358.7" y="450.1" class="st19" width="12.8" height="17.1"/>
<rect x="2358.7" y="487" class="st19" width="12.8" height="17.1"/>
<rect x="2338" y="450.1" class="st19" width="6.9" height="17.1"/>
<rect x="2338" y="487" class="st19" width="6.9" height="17.1"/>
<rect x="2386.8" y="530.1" class="st19" width="12.8" height="17.1"/>
<rect x="2386.8" y="566.9" class="st19" width="12.8" height="17.1"/>
<rect x="2358.7" y="530.1" class="st19" width="12.8" height="17.1"/>
<rect x="2358.7" y="566.9" class="st19" width="12.8" height="17.1"/>
<rect x="2338" y="530.1" class="st19" width="6.9" height="17.1"/>
<rect x="2338" y="566.9" class="st19" width="6.9" height="17.1"/>
<rect x="1994.2" y="436.3" class="st22" width="148.5" height="222.1"/>
<rect x="2158.8" y="321.5" class="st20" width="178.7" height="322.5"/>
<path class="st21" d="M2343.1,74.2c-3.2,0-6.4,0.9-9,2.3c-0.2-13.9-11.4-25-25.3-25c-11.3,0-20.9,7.5-24.1,17.8  c-2.2-0.9-4.7-1.3-7.3-1.3c-8,0-15,4.6-18.5,11.2c-2.7-1.5-5.8-2.4-9.1-2.4c-10.1,0-18.4,8.2-18.4,18.4h26h10.7h23.3h5.8h27.5h1.3  h35.1c0.1-0.9,0.2-1.7,0.2-2.6C2361.5,82.5,2353.2,74.2,2343.1,74.2z"/>
<path class="st20" d="M2346.4,79.1c-3.2,0-6.4,0.9-9,2.3c-0.2-13.9-11.4-25-25.3-25c-11.3,0-20.9,7.5-24.1,17.8  c-2.2-0.9-4.7-1.3-7.3-1.3c-8,0-15,4.6-18.5,11.2c-2.7-1.5-5.8-2.4-9.1-2.4c-10.1,0-18.4,8.2-18.4,18.4h26h10.7h23.3h5.8h27.5h1.3  h35.1c0.1-0.9,0.2-1.7,0.2-2.6C2364.8,87.3,2356.5,79.1,2346.4,79.1z"/>
<rect x="2142.6" y="310.1" class="st21" width="194.9" height="348.4"/>
<rect x="2130.3" y="291.9" class="st22" width="218.6" height="18.3"/>
<g>
	<g>
		<g>
			<g>
				<rect x="2276.3" y="536.2" class="st22" width="23.1" height="36"/>
				<line class="st21" x1="2270" y1="572.1" x2="2305.1" y2="572.1"/>
				<line class="st21" x1="2276.8" y1="552.9" x2="2299.4" y2="552.9"/>
			</g>
		</g>
		<g>
			<g>
				<rect x="2227.8" y="536.2" class="st22" width="23.1" height="36"/>
				<line class="st21" x1="2221.4" y1="572.1" x2="2256.5" y2="572.1"/>
				<line class="st21" x1="2228.3" y1="552.9" x2="2250.9" y2="552.9"/>
			</g>
		</g>
		<g>
			<g>
				<rect x="2179.3" y="536.2" class="st22" width="23.1" height="36"/>
				<line class="st21" x1="2172.9" y1="572.1" x2="2208" y2="572.1"/>
				<line class="st21" x1="2179.8" y1="552.9" x2="2202.3" y2="552.9"/>
			</g>
		</g>
	</g>
	<g>
		<g>
			<g>
				<rect x="2276.3" y="473.5" class="st22" width="23.1" height="36"/>
				<line class="st21" x1="2270" y1="509.4" x2="2305.1" y2="509.4"/>
				<line class="st21" x1="2276.8" y1="490.2" x2="2299.4" y2="490.2"/>
			</g>
		</g>
		<g>
			<g>
				<rect x="2227.8" y="473.5" class="st22" width="23.1" height="36"/>
				<line class="st21" x1="2221.4" y1="509.4" x2="2256.5" y2="509.4"/>
				<line class="st21" x1="2228.3" y1="490.2" x2="2250.9" y2="490.2"/>
			</g>
		</g>
		<g>
			<g>
				<rect x="2179.3" y="473.5" class="st22" width="23.1" height="36"/>
				<line class="st21" x1="2172.9" y1="509.4" x2="2208" y2="509.4"/>
				<line class="st21" x1="2179.8" y1="490.2" x2="2202.3" y2="490.2"/>
			</g>
		</g>
	</g>
	<g>
		<g>
			<g>
				<rect x="2276.3" y="410.8" class="st22" width="23.1" height="36"/>
				<line class="st21" x1="2270" y1="446.7" x2="2305.1" y2="446.7"/>
				<line class="st21" x1="2276.8" y1="427.5" x2="2299.4" y2="427.5"/>
			</g>
		</g>
		<g>
			<g>
				<rect x="2227.8" y="410.8" class="st22" width="23.1" height="36"/>
				<line class="st21" x1="2221.4" y1="446.7" x2="2256.5" y2="446.7"/>
				<line class="st21" x1="2228.3" y1="427.5" x2="2250.9" y2="427.5"/>
			</g>
		</g>
		<g>
			<g>
				<rect x="2179.3" y="410.8" class="st22" width="23.1" height="36"/>
				<line class="st21" x1="2172.9" y1="446.7" x2="2208" y2="446.7"/>
				<line class="st21" x1="2179.8" y1="427.5" x2="2202.3" y2="427.5"/>
			</g>
		</g>
	</g>
	<g>
		<g>
			<g>
				<rect x="2276.3" y="348.1" class="st22" width="23.1" height="36"/>
				<line class="st21" x1="2270" y1="384" x2="2305.1" y2="384"/>
				<line class="st21" x1="2276.8" y1="364.8" x2="2299.4" y2="364.8"/>
			</g>
		</g>
		<g>
			<g>
				<rect x="2227.8" y="348.1" class="st22" width="23.1" height="36"/>
				<line class="st21" x1="2221.4" y1="384" x2="2256.5" y2="384"/>
				<line class="st21" x1="2228.3" y1="364.8" x2="2250.9" y2="364.8"/>
			</g>
		</g>
		<g>
			<g>
				<rect x="2179.3" y="348.1" class="st22" width="23.1" height="36"/>
				<line class="st21" x1="2172.9" y1="384" x2="2208" y2="384"/>
				<line class="st21" x1="2179.8" y1="364.8" x2="2202.3" y2="364.8"/>
			</g>
		</g>
	</g>
</g>
<line class="st21" x1="2312.4" y1="658.8" x2="417.5" y2="658.8"/>
<line class="st21" x1="2158.8" y1="337.8" x2="2158.8" y2="365.2"/>
<line class="st23" x1="117.8" y1="681.7" x2="103.3" y2="681.7"/>
<line class="st23" x1="719.2" y1="679.1" x2="704.7" y2="679.1"/>
<line class="st21" x1="2053.7" y1="692.2" x2="2046.5" y2="692.2"/>
<line class="st21" x1="1816.1" y1="699.7" x2="1801.5" y2="699.7"/>
<line class="st21" x1="248.8" y1="715.1" x2="234.3" y2="715.1"/>
<line class="st21" x1="515.3" y1="698.4" x2="508.1" y2="698.4"/>
<line class="st21" x1="348.7" y1="690.9" x2="341.4" y2="690.9"/>
<line class="st21" x1="673.6" y1="727.9" x2="670" y2="727.9"/>
<line class="st21" x1="880.7" y1="684.8" x2="877.1" y2="684.8"/>
<line class="st21" x1="1196" y1="695.4" x2="1192.3" y2="695.4"/>
<line class="st21" x1="824" y1="727.9" x2="820.4" y2="727.9"/>
<line class="st21" x1="1652.2" y1="714.2" x2="1648.6" y2="714.2"/>
<line class="st21" x1="1393.8" y1="709.2" x2="1390.1" y2="709.2"/>
<line class="st21" x1="2160" y1="723.5" x2="2156.4" y2="723.5"/>
<line class="st21" x1="1941.4" y1="727.1" x2="1937.8" y2="727.1"/>
<line class="st21" x1="2220.4" y1="686.7" x2="2216.8" y2="686.7"/>
<line class="st21" x1="2298.9" y1="723.5" x2="2295.2" y2="723.5"/>
<line class="st21" x1="2354.3" y1="697.3" x2="2339.7" y2="697.3"/>
<circle class="st22" cx="46.7" cy="580.9" r="36.6"/>
<circle class="st29" cx="51.7" cy="582" r="31.7"/>
<line class="st21" x1="46.7" y1="575.1" x2="46.7" y2="660"/>
<line class="st21" x1="46.7" y1="599.7" x2="66" y2="588.4"/>
<line class="st21" x1="46.7" y1="583.2" x2="27.4" y2="571.9"/>
<rect x="2142.6" y="279.4" class="st30" width="194.9" height="12.2"/>
<polyline class="st21" points="2142.6,291.6 2142.6,279.4 2337.5,279.4 2337.5,291.6 "/>
<rect x="2144.2" y="280.9" class="st30" width="191.8" height="4.6"/>
<path class="st22" d="M223.9,628.5l-19-11.9c-2.1-1.3-4.7-2-7.2-2h-40.1c-3.1,0-6,1.5-7.8,4l-3.3,4.8l-3.5,5.3h-11.4  c-4.4,0-8.3,2.8-9.7,7l-1.2,3.6c-0.4,1.3-0.6,2.6-0.6,3.9v7.4c0,3.1,1.2,6.3,3.3,8.6l5.9,6.5l1.4,1.5h2.1h4.6h2.1  c2.6,3.5,6.8,6,11.5,6c4.8,0,9-2.3,11.5-6h2.1h54.6h2.3c2.5,3.4,6.7,5.8,11.3,5.8c4.7,0,8.8-2.2,11.3-5.8h2.3h8.4  c4.3,0,8.2-2.8,9.5-7l1.3-3.9c0.6-1.8,0.4-3.7-0.6-5.5c-0.2-0.3-0.4-0.7-0.7-1V646c0-3.9-2.7-7.4-6.5-8.4l-28.4-7.2l-6.2-2h-80.4"/>
<path class="st22" d="M151.2,673.6c-5.2,0-9.5-3-11.4-7.5l-0.5-1.8c-0.7-2.8-0.5-5.5,0.7-8.1c1.9-4,5.7-6.9,9.8-7.3  c0.5,0,0.9-0.1,1.4-0.1c6.8,0,12.3,5.6,12.3,12.3c0,1-0.1,2.1-0.4,3.1l-0.5,1.8C160.7,670.6,156.3,673.6,151.2,673.6z"/>
<path class="st22" d="M233.5,673.6c-5.2,0-9.5-3-11.4-7.5l-0.5-1.8c-0.7-2.8-0.5-5.5,0.7-8.1c1.9-4,5.7-6.9,9.8-7.3  c0.5,0,0.9-0.1,1.4-0.1c6.8,0,12.3,5.6,12.3,12.3c0,1-0.1,2.1-0.4,3.1l-0.5,1.8C243,670.6,238.6,673.6,233.5,673.6z"/>
<polyline class="st21" points="224.2,628.5 231.1,592.3 241.5,588 "/>
<line class="st23" x1="191.3" y1="614.4" x2="191.3" y2="627.4"/>
<path class="st20" d="M120,641c0,0.5,143.5,0,143.5,0s-2.7-5-17.7-6.6c0,0-20-5.8-23-7.1l-92.2,1.1C130.7,628.5,119.3,627.6,120,641  z"/>
<line class="st21" x1="191.3" y1="628.5" x2="191.3" y2="652.5"/>
<line class="st21" x1="145.3" y1="638.7" x2="152.9" y2="638.7"/>
<line class="st23" x1="199.6" y1="638.7" x2="207.1" y2="638.7"/>
<g>
	<g>
		<path class="st19" d="M261.6,563.4c-1.7,3.5-2.1,7.5-0.3,11.1c0.7,1.4,1.7,2.4,2.6,3.7c4,6.1,1.1,6.1-0.4,10.5    c-1.2,3.4-1.4,8.5,0.1,11.8c1.2,2.6,3.3,3.7,3.5,7.1c0.2,4.1-2.8,7.4-6.1,9.5c-1.2,0.8-0.1,2.7,1.1,1.9c3.3-2.1,6.2-5,7-9    c0.3-1.6,0.3-3.2-0.2-4.9c-0.7-2.5-3-4.2-3.8-6.8c-1.1-3.6,0.1-8.2,1.7-11.3c0.9-1.7,1.9-2.6,1.7-4.7c-0.1-1.7-1.1-3.1-2.1-4.4    c-3.2-4.3-5.6-7.9-3-13.3C264.3,563.2,262.2,562,261.6,563.4L261.6,563.4z"/>
	</g>
</g>
<g>
	<g>
		<path class="st19" d="M248.4,572.8c-1,2-1.1,3.8-0.5,6c0.4,1.5,1.4,2.9,1.9,4.4c1.1,3.2,0.3,5.6-0.5,8.6c-0.7,2.8-0.9,5.6,0.3,8.4    c2.1,4.8,2.8,7.9-0.4,12.5c-0.8,1.2,1.1,2.3,1.9,1.1c1.6-2.2,2.8-4.8,2.9-7.6c0.1-3.4-1.9-5.1-2.9-8.2c-1.3-4.3,2-8,1.7-12.2    c-0.2-4-4.8-7.8-2.6-11.9C251,572.6,249,571.5,248.4,572.8L248.4,572.8z"/>
	</g>
</g>
<line class="st23" x1="264.9" y1="649.6" x2="256.6" y2="649.6"/>
<polyline class="st21" points="451.5,309.5 425.7,302 415,304.8 428,316.9 "/>
<path class="st22" d="M459.8,306.7l-20,6.8c-10.3,3.5-20.7,7.1-31.9,11.2l-8.3-4.8l-6.9,1.8l11.1,18.2l12-2.5l16.6-3.4l-12.4,24.9  l13.6-3.5l23.1-26.3l8.5-1.7c4.2-0.9,20.9-5.9,19.8-10.1c-1.2-4.6-10.2-7.4-10.2-7.4S471.2,303.4,459.8,306.7z"/>
<path class="st25" d="M462.7,316.8c0,0,14.8-2.2,12.1-6.9"/>
<circle class="st19" cx="454.7" cy="317.8" r="1.8"/>
<circle class="st19" cx="446.5" cy="319.9" r="1.8"/>
<circle class="st19" cx="437.9" cy="322.6" r="1.8"/>
<circle class="st19" cx="429.2" cy="324.5" r="1.8"/>
<path class="st20" d="M431.4,335.9l-12.9,25.4l13.6-3.4l25.2-26.8l7.6-1.4c4.2-0.9,19.7-4.3,18.7-8.3c-1.2-4.3-10.2-7-10.2-7  s-0.3-0.6-1.2-1.3l-73.8,22.6l5,6.5L431.4,335.9z"/>
<g>
	<g>
		<g>
			<rect x="2100.7" y="599.9" class="st21" width="12.8" height="21.5"/>
		</g>
		<g>
			<rect x="2074.4" y="599.9" class="st21" width="12.8" height="21.5"/>
		</g>
		<g>
			<rect x="2048.1" y="599.9" class="st21" width="12.8" height="21.5"/>
		</g>
		<g>
			<rect x="2021.8" y="599.9" class="st21" width="12.8" height="21.5"/>
		</g>
	</g>
	<g>
		<g>
			<rect x="2100.7" y="566.5" class="st21" width="12.8" height="21.5"/>
		</g>
		<g>
			<rect x="2074.4" y="566.5" class="st21" width="12.8" height="21.5"/>
		</g>
		<g>
			<rect x="2048.1" y="566.5" class="st21" width="12.8" height="21.5"/>
		</g>
		<g>
			<rect x="2021.8" y="566.5" class="st21" width="12.8" height="21.5"/>
		</g>
	</g>
	<g>
		<g>
			<rect x="2100.7" y="533.1" class="st21" width="12.8" height="21.5"/>
		</g>
		<g>
			<rect x="2074.4" y="533.1" class="st21" width="12.8" height="21.5"/>
		</g>
		<g>
			<rect x="2048.1" y="533.1" class="st21" width="12.8" height="21.5"/>
		</g>
		<g>
			<rect x="2021.8" y="533.1" class="st21" width="12.8" height="21.5"/>
		</g>
	</g>
	<g>
		<g>
			<rect x="2100.7" y="499.8" class="st21" width="12.8" height="21.5"/>
		</g>
		<g>
			<rect x="2074.4" y="499.8" class="st21" width="12.8" height="21.5"/>
		</g>
		<g>
			<rect x="2048.1" y="499.8" class="st21" width="12.8" height="21.5"/>
		</g>
		<g>
			<rect x="2021.8" y="499.8" class="st21" width="12.8" height="21.5"/>
		</g>
	</g>
	<g>
		<g>
			<rect x="2100.7" y="466.4" class="st21" width="12.8" height="21.5"/>
		</g>
		<g>
			<rect x="2074.4" y="466.4" class="st21" width="12.8" height="21.5"/>
		</g>
		<g>
			<rect x="2048.1" y="466.4" class="st21" width="12.8" height="21.5"/>
		</g>
		<g>
			<rect x="2021.8" y="466.4" class="st21" width="12.8" height="21.5"/>
		</g>
	</g>
</g>
<path class="st22" d="M2415.6,645.6c-2.1-6.8-8.5-11.7-16-11.7c-7.7,0-14.1,5.2-16.1,12.1c-0.9-0.2-1.9-0.4-2.9-0.4  c-6.7,0-12,5.4-12,12c0,0.4,0,0.8,0.1,1.2h16.4h7.5h10.9h10.8h13c0-0.4,0.1-0.8,0.1-1.2C2427.3,651,2422.1,645.8,2415.6,645.6z"/>
<rect x="2131" y="435.3" class="st20" width="11.6" height="221"/>
<path class="st22" d="M2151.9,647.6c-1.8-5.8-7.3-10-13.7-10c-6.5,0-12,4.3-13.8,10.3c-0.8-0.2-1.6-0.3-2.5-0.3  c-5.7,0-10.2,4.6-10.2,10.2c0,0.4,0,0.7,0.1,1.1h14h6.4h9.3h9.2h11.1c0-0.3,0.1-0.7,0.1-1.1C2161.9,652.2,2157.4,647.7,2151.9,647.6  z"/>
<path class="st22" d="M523.2,646.5c-2-6.4-7.9-10.9-14.9-10.9c-7.1,0-13,4.8-15,11.2c-0.9-0.2-1.8-0.3-2.7-0.3  c-6.2,0-11.1,5-11.1,11.1c0,0.4,0,0.8,0.1,1.2h15.3h7H512h10h12.1c0-0.4,0.1-0.8,0.1-1.2C534.2,651.5,529.3,646.7,523.2,646.5z"/>
<path class="st22" d="M665,648.1c-1.7-5.5-6.9-9.5-12.9-9.5c-6.2,0-11.3,4.1-13,9.8c-0.8-0.2-1.5-0.3-2.3-0.3  c-5.4,0-9.7,4.3-9.7,9.7c0,0.3,0,0.7,0.1,1h13.2h6.1h8.8h8.7h10.5c0-0.3,0.1-0.7,0.1-1C674.5,652.6,670.3,648.3,665,648.1z"/>
<line class="st21" x1="392.7" y1="358.7" x2="368.7" y2="368.1"/>
<line class="st21" x1="413.8" y1="365.8" x2="401.8" y2="370.5"/>
<line class="st21" x1="390.3" y1="340.5" x2="378.2" y2="345.2"/>
<g>
	<g>
		<rect x="449.4" y="548.5" class="st31" width="29.9" height="29.9"/>
		<rect x="449.4" y="548.5" class="st23" width="29.9" height="29.9"/>
	</g>
	<g>
		<rect x="389.8" y="548.5" class="st31" width="29.9" height="29.9"/>
		<rect x="389.8" y="548.5" class="st23" width="29.9" height="29.9"/>
	</g>
	<g>
		<rect x="330.1" y="548.5" class="st31" width="29.9" height="29.9"/>
		<rect x="330.1" y="548.5" class="st23" width="29.9" height="29.9"/>
	</g>
</g>
<g>
	<g>
		<rect x="449.4" y="594.1" class="st31" width="29.9" height="29.9"/>
		<rect x="449.4" y="594.1" class="st23" width="29.9" height="29.9"/>
	</g>
	<g>
		<rect x="389.8" y="594.1" class="st31" width="29.9" height="29.9"/>
		<rect x="389.8" y="594.1" class="st23" width="29.9" height="29.9"/>
	</g>
	<g>
		<rect x="330.1" y="594.1" class="st31" width="29.9" height="29.9"/>
		<rect x="330.1" y="594.1" class="st23" width="29.9" height="29.9"/>
	</g>
</g>
<rect x="310.9" y="453.8" class="st22" width="209.4" height="19.3"/>
<line class="st23" x1="330.1" y1="568.9" x2="360" y2="568.9"/>
<line class="st23" x1="390.1" y1="569.9" x2="420.1" y2="569.9"/>
<line class="st23" x1="450.4" y1="569.9" x2="480.4" y2="569.9"/>
<g>
	<g>
		<rect x="449.4" y="500" class="st31" width="29.9" height="29.9"/>
		<rect x="449.4" y="500" class="st21" width="29.9" height="29.9"/>
	</g>
	<g>
		<rect x="389.8" y="500" class="st31" width="29.9" height="29.9"/>
		<rect x="389.8" y="500" class="st21" width="29.9" height="29.9"/>
	</g>
	<g>
		<rect x="330.1" y="500" class="st31" width="29.9" height="29.9"/>
		<rect x="330.1" y="500" class="st21" width="29.9" height="29.9"/>
	</g>
</g>
<line class="st23" x1="330.1" y1="520.4" x2="360" y2="520.4"/>
<line class="st23" x1="390.1" y1="521.4" x2="420.1" y2="521.4"/>
<line class="st23" x1="450.4" y1="521.4" x2="480.4" y2="521.4"/>
<line class="st23" x1="330.1" y1="613.9" x2="360" y2="613.9"/>
<line class="st23" x1="390.1" y1="614.9" x2="420.1" y2="614.9"/>
<line class="st23" x1="450.4" y1="614.9" x2="480.4" y2="614.9"/>
<circle class="st22" cx="2353.1" cy="580.4" r="36.2"/>
<circle class="st30" cx="2354.8" cy="580.4" r="36.2"/>
<path class="st31" d="M2372.3,582.6c0-18.1-14-32.9-31.7-34.2c-12.8,5-22,17.4-22,32.1c0,18.1,14,32.9,31.7,34.2  C2363.2,609.6,2372.3,597.1,2372.3,582.6z"/>
<line class="st21" x1="2353.1" y1="574.7" x2="2353.1" y2="658.8"/>
<line class="st21" x1="2353.1" y1="599.1" x2="2372.3" y2="587.9"/>
<line class="st21" x1="2353.1" y1="582.7" x2="2334" y2="571.6"/>
<path class="st22" d="M1852.4,590c2.1-2.8,3.4-6.2,3.4-9.8c0-9.5-8.8-17.3-19.6-17.3c-10.8,0-19.6,7.7-19.6,17.3  c0,3.6,1.3,7,3.4,9.8c-4.8,4.3-7.8,10.6-7.8,17.6c0,13.1,10.7,23.9,23.9,23.9c13.1,0,23.9-10.7,23.9-23.9  C1860.1,600.6,1857.2,594.3,1852.4,590z"/>
<path class="st20" d="M1862.6,583.9c0-10.9-8.9-19.8-19.8-19.8s-19.8,8.9-19.8,19.8c0,3.8,1.1,7.4,2.9,10.4  c-5.2,3.5-8.5,9.5-8.5,16.3c0,10.9,8.9,19.8,19.8,19.8c10.9,0,19.8-8.9,19.8-19.8c0-3.8-1.1-7.4-2.9-10.4  C1859.3,596.5,1862.6,590.6,1862.6,583.9z"/>
<line class="st21" x1="1836.2" y1="603.8" x2="1836.2" y2="659.3"/>
<line class="st23" x1="745" y1="619.4" x2="757.7" y2="612"/>
<line class="st23" x1="745" y1="608.6" x2="732.4" y2="601.2"/>
<path class="st22" d="M761.1,589.5c2.1-2.8,3.4-6.2,3.4-9.8c0-9.5-8.8-17.3-19.6-17.3c-10.8,0-19.6,7.7-19.6,17.3  c0,3.6,1.3,7,3.4,9.8c-4.8,4.3-7.8,10.6-7.8,17.6c0,13.1,10.7,23.9,23.9,23.9s23.9-10.7,23.9-23.9  C768.9,600.1,765.9,593.8,761.1,589.5z"/>
<path class="st20" d="M771.7,586.3c0-9.8-8-17.7-17.7-17.7c-9.8,0-17.7,8-17.7,17.7c0,3.4,1,6.6,2.6,9.3c-4.6,3.2-7.6,8.5-7.6,14.6  c0,9.8,8,17.7,17.7,17.7c9.8,0,17.7-8,17.7-17.7c0-3.4-1-6.6-2.6-9.3C768.7,597.6,771.7,592.3,771.7,586.3z"/>
<line class="st21" x1="745" y1="603.3" x2="745" y2="658.8"/>
<rect x="310.8" y="438.2" class="st21" width="198" height="15.7"/>
<rect x="310.9" y="436.8" class="st20" width="198.1" height="15.7"/>
<line class="st23" x1="86" y1="658.6" x2="0" y2="658.6"/>
<path class="st19" d="M652.4,532.2c-0.1-0.1-0.2-0.1-0.4-0.2c-1.1-0.4-2.1-0.3-3.1,0.3c-1.4,0.9-2.2,2.7-2.2,3.8  c0,1.9,0.1,3.4,3.2,9.9c7-1.5,8.2-2.3,9.7-3.5c0.9-0.7,1.8-2.5,1.7-4.1c-0.1-1.2-0.7-2.1-1.7-2.6c-2.8-1.6-4.6,0.3-4.7,0.4l-0.5,0.6  l0.2-0.8C654.5,535.9,655,533.4,652.4,532.2z"/>
<path class="st19" d="M634.8,515.4c-0.1,0-0.2,0.1-0.3,0.1c-0.8,0.3-1.3,0.9-1.4,1.7c-0.2,1.1,0.2,2.5,0.8,3.1c1,1,1.8,1.7,6.7,3.4  c2.8-4.2,3-5.4,3.2-6.8c0.1-0.8-0.3-2.2-1.2-2.9c-0.6-0.6-1.4-0.7-2.2-0.5c-2.3,0.6-2.2,2.4-2.2,2.5v0.6l-0.3-0.5  C637.7,516.2,636.8,514.8,634.8,515.4z"/>
<path class="st19" d="M658.4,505.9c-0.1,0-0.1-0.1-0.2-0.1c-0.6-0.2-1.1-0.1-1.6,0.3c-0.7,0.5-1.1,1.5-1,2.1c0.1,1,0.2,1.8,2,5.2  c3.6-1,4.2-1.5,5.1-2.2c0.4-0.4,0.9-1.4,0.7-2.2c-0.1-0.6-0.4-1.1-1-1.3c-1.6-0.8-2.4,0.3-2.4,0.4l-0.3,0.3l0.1-0.4  C659.7,507.8,659.8,506.5,658.4,505.9z"/>
<line class="st21" x1="2231.1" y1="279.4" x2="2231.1" y2="223.2"/>
<line class="st21" x1="2243.9" y1="279.4" x2="2243.9" y2="223.2"/>
<line class="st21" x1="2212.6" y1="237" x2="2266.2" y2="229.4"/>
<line class="st21" x1="2212.6" y1="247.8" x2="2266.2" y2="240.4"/>
<path class="st32" d="M2085.1,226.1c0,0,2.9,22.5-13.6,28.8c0,0-28.3,9.2-33.1-22.7c0,0,1.9,6,10.7,2.8c0,0,3.6-1.1,5.3-0.1  c1.5,0.9-0.9-3.1-0.4-4c0,0,0-0.1-0.1-0.1c-0.9,0.2-4.8,0.6-6.4-2.5c0,0,3.3,0.8,5.3-2c0,0,0-0.1-0.1-0.1c-0.8,0.1-5.4,0.8-6.8-1.7  l3.6-2.2c0.1,0,0-0.1,0-0.1c-1.4,0.4-6.5,1.2-7.9-5.4c0,0,3,1.4,6.4,0.6l0,0c-0.5-0.1-6.5-1.3-5.7-7.2c0,0,17.4,1.9,22.2,19.8  c0,0,1.9,12,9.3,12.5c0,0,4.6,1.3,7-16c0,0-0.6-6.9,5.1-6.7c0,0,2.4-0.1,2.9,2c0.2,0.9,0,1.9-0.5,2.7  C2087.9,225.6,2086.9,226.4,2085.1,226.1z"/>
<polyline class="st19" points="2088,225.2 2111.7,227.8 2088.9,221.9 "/>
<path class="st32" d="M2055.8,255.3c0,0-8.9,10.7-23.8,9.9"/>
<path class="st32" d="M2049.8,252.8c0,0-7.5,9-21,8.3"/>
<path class="st32" d="M2118.7,255.7l-15.5-29.9l-7.1,32c-0.6,1.5-0.8,3.2-0.5,5c0.9,6,7.1,10.1,13.8,9.1c6.7-1,11.4-6.7,10.5-12.6  C2119.6,257.9,2119.2,256.7,2118.7,255.7z"/>
<path class="st20" d="M2115.3,257.3l-11.4-31.7l-11.2,30.7c-0.8,1.5-1.2,3.1-1.2,4.9c0.1,6.1,5.7,10.9,12.4,10.8s12.1-5.2,12.1-11.2  C2116,259.7,2115.7,258.5,2115.3,257.3z"/>
<path class="st32" d="M2103.5,225.8c0,0-2-5.9,3.9-6.2C2107.4,219.6,2108.9,223.4,2103.5,225.8z"/>
<path class="st32" d="M2102.9,225.8c0,0,1.5-6-4.4-5.8C2098.4,220,2097.3,223.8,2102.9,225.8z"/>
<circle class="st19" cx="2086.3" cy="223" r="0.6"/>
<g>
	<path class="st31" d="M3575.5,3835.3H2917v-324.4c0-12.2,9.9-22.1,22.1-22.1h614.3c12.2,0,22.1,9.9,22.1,22.1L3575.5,3835.3   L3575.5,3835.3z"/>
	<path class="st18" d="M3577,3836.8h-661.5v-325.9c0-13,10.6-23.6,23.6-23.6h614.3c13,0,23.6,10.6,23.6,23.6L3577,3836.8   L3577,3836.8z M2918.6,3833.8h655.5v-322.9c0-11.3-9.2-20.6-20.6-20.6h-614.3c-11.3,0-20.6,9.2-20.6,20.6L2918.6,3833.8   L2918.6,3833.8z"/>
</g>
<g>
	<path class="st1" d="M3586.9,3871.3h-682.7c-12.8,0-23.2-10.4-23.2-23.2v-12.8h729v12.8C3610,3860.9,3599.7,3871.3,3586.9,3871.3z"/>
	<path class="st18" d="M3586.9,3872.8h-682.7c-13.6,0-24.7-11.1-24.7-24.7v-14.3h732v14.3   C3611.5,3861.7,3600.5,3872.8,3586.9,3872.8z M2882.6,3836.8v11.3c0,11.9,9.7,21.7,21.7,21.7H3587c11.9,0,21.7-9.7,21.7-21.7v-11.3   H2882.6z"/>
</g>
<g>
	<path class="st18" d="M3306.5,3860.4h-122c-3.6,0-6.5-2.9-6.5-6.5s2.9-6.5,6.5-6.5h122c3.6,0,6.5,2.9,6.5,6.5   S3310.1,3860.4,3306.5,3860.4z M3184.5,3850.4c-1.9,0-3.5,1.6-3.5,3.5s1.6,3.5,3.5,3.5h122c1.9,0,3.5-1.6,3.5-3.5s-1.6-3.5-3.5-3.5   H3184.5z"/>
</g>
<g>
	<path class="st23" d="M3323.8,3764.2h-154.6c-12.2,0-22.1-9.9-22.1-22.1v-0.4c0-12.2,9.9-22.1,22.1-22.1h154.6   c12.2,0,22.1,9.9,22.1,22.1v0.4C3345.8,3754.3,3336,3764.2,3323.8,3764.2z"/>
</g>
<g>
	<path class="st33" d="M3215.1,3746.9v-8.8c0-0.9,0.5-1.5,1.4-1.5h6.6c0.8,0,1.2,0.4,1.2,1.1v0.1c0,0.7-0.4,1.1-1.2,1.1h-5.3v2.3   h3.9c0.9,0,1.2,0.4,1.2,1v0.1c0,0.7-0.4,1.1-1.2,1.1h-3.9v2.6h5.4c0.8,0,1.2,0.4,1.2,1.1v0.1c0,0.7-0.4,1.2-1.2,1.2h-6.7   C3215.6,3748.3,3215.1,3747.8,3215.1,3746.9z"/>
	<path class="st33" d="M3226,3747.2v-9.4c0-0.9,0.4-1.3,1.2-1.3h0.3c0.7,0,0.9,0.2,1.4,0.8l5.1,7v-6.5c0-0.8,0.4-1.2,1.1-1.2h0.3   c0.7,0,1.1,0.4,1.1,1.2v9.4c0,0.9-0.4,1.3-1.1,1.3h-0.2c-0.7,0-0.9-0.2-1.3-0.7l-5.3-7.3v6.7c0,0.8-0.4,1.2-1.2,1.2h-0.3   C3226.3,3748.4,3226,3748,3226,3747.2z"/>
	<path class="st33" d="M3240.8,3737.7l2.6,7.6l2.6-7.6c0.3-0.9,0.9-1.2,1.5-1.2c0.9,0,1.7,0.7,1.6,0.9l-4,10c-0.3,0.7-0.7,1-1.6,1   c-0.9,0-1.3-0.3-1.6-1l-4.1-10c-0.1-0.2,0.8-0.9,1.6-0.9C3240,3736.5,3240.6,3736.9,3240.8,3737.7z"/>
	<path class="st33" d="M3250.4,3747.2v-9.5c0-0.8,0.4-1.2,1.1-1.2h0.4c0.8,0,1.2,0.4,1.2,1.2v9.5c0,0.8-0.4,1.2-1.2,1.2h-0.4   C3250.8,3748.4,3250.4,3748,3250.4,3747.2z"/>
	<path class="st33" d="M3262.3,3745.3h-4.3l-0.7,1.9c-0.3,0.9-0.9,1.2-1.5,1.2c-0.7,0-1.5-0.6-1.4-0.8l4-10.4   c0.1-0.5,0.5-0.8,1.7-0.8s1.6,0.3,1.7,0.8l4.1,10.4c0.1,0.2-0.7,0.8-1.5,0.8c-0.6,0-1.2-0.3-1.5-1.3L3262.3,3745.3z M3258.6,3743.3   h3.2l-1.6-4.3L3258.6,3743.3z"/>
	<path class="st33" d="M3273.4,3747.3l-2.5-3.2h-1v3c0,0.8-0.4,1.2-1.2,1.2h-0.4c-0.7,0-1.1-0.5-1.1-1.5v-8.9c0-0.9,0.5-1.5,1.4-1.5   h3.5c3.1,0,4.6,1.3,4.6,3.7c0,1.9-1.1,3.2-3.1,3.5l3.1,3.7c0.1,0.1-0.4,1-1.5,1C3274.4,3748.4,3274,3748.1,3273.4,3747.3z    M3269.9,3742.2h2.1c1.4,0,2.1-0.7,2.1-1.8s-0.7-1.8-2.2-1.8h-2L3269.9,3742.2L3269.9,3742.2z"/>
</g>
<g>
	<line class="st24" x1="3564.1" y1="3620.6" x2="3564.1" y2="3656.7"/>
	<rect x="3562.6" y="3620.6" class="st18" width="3" height="36.1"/>
</g>
<g>
	<circle class="st1" cx="3246.1" cy="3498.9" r="5"/>
</g>
<g>
	<rect x="2941.5" y="3508.9" class="st34" width="610" height="43"/>
</g>
<g>
	<path class="st18" d="M3544.5,3815.4h-596c-4.7,0-8.5-3.8-8.5-8.5v-291c0-4.7,3.8-8.5,8.5-8.5h596c4.7,0,8.5,3.8,8.5,8.5v291   C3553,3811.6,3549.2,3815.4,3544.5,3815.4z M2948.5,3510.4c-3,0-5.5,2.5-5.5,5.5v291c0,3,2.5,5.5,5.5,5.5h596c3,0,5.5-2.5,5.5-5.5   v-291c0-3-2.5-5.5-5.5-5.5H2948.5L2948.5,3510.4z"/>
</g>
<g>
	<path class="st31" d="M3474.1,3538.5h-416.7c-3.9,0-7-3.1-7-7l0,0c0-3.9,3.1-7,7-7h416.7c3.9,0,7,3.1,7,7l0,0   C3481.1,3535.4,3478,3538.5,3474.1,3538.5z"/>
</g>
<g>
	<circle class="st31" cx="3025" cy="3531.7" r="5.2"/>
</g>
<g>
	<circle class="st14" cx="3001.8" cy="3531.7" r="5.2"/>
</g>
<g>
	<circle class="st35" cx="2980.5" cy="3531.7" r="5.2"/>
</g>
<g>
	<ellipse class="st2" cx="2925.3" cy="3912.1" rx="115.6" ry="11.4"/>
</g>
<g>
	<path class="st31" d="M2991.6,3913.6h-128.4c-8.8,0-15.9-7.1-15.9-15.9v-246.8c0-8.8,7.1-15.9,15.9-15.9h128.4   c8.8,0,15.9,7.1,15.9,15.9v246.8C3007.5,3906.5,3000.4,3913.6,2991.6,3913.6z"/>
	<path class="st18" d="M2991.6,3915.1h-128.4c-9.6,0-17.4-7.8-17.4-17.4v-246.8c0-9.6,7.8-17.4,17.4-17.4h128.4   c9.6,0,17.4,7.8,17.4,17.4v246.8C3009,3907.3,3001.2,3915.1,2991.6,3915.1z M2863.2,3636.4c-8,0-14.4,6.5-14.4,14.4v246.8   c0,8,6.5,14.4,14.4,14.4h128.4c8,0,14.4-6.5,14.4-14.4v-246.7c0-8-6.5-14.4-14.4-14.4h-128.4V3636.4z"/>
</g>
<g>
	<circle class="st31" cx="2927.5" cy="3902.5" r="4.9"/>
	<path class="st18" d="M2927.5,3908.7c-3.4,0-6.1-2.7-6.1-6.1c0-3.4,2.7-6.1,6.1-6.1s6.1,2.7,6.1,6.1S2930.9,3908.7,2927.5,3908.7z    M2927.5,3898.9c-2,0-3.6,1.6-3.6,3.6s1.6,3.6,3.6,3.6s3.6-1.6,3.6-3.6S2929.5,3898.9,2927.5,3898.9z"/>
</g>
<g>
	<g>
		<rect x="2857.1" y="3652.3" class="st34" width="140.7" height="240.5"/>
	</g>
	<g>
		<g>
			<polygon class="st31" points="2957.7,3679.6 2997.7,3695.3 2997.7,3687.4 2960.4,3672.8 2968.4,3652.3 2960.5,3652.3      2953.6,3670.1 2908.2,3652.3 2888.1,3652.3 2950.9,3676.9 2932.8,3723.2 2857.1,3693.5 2857.1,3701.4 2930.1,3730 2914.2,3770.7      2857.1,3748.4 2857.1,3756.2 2911.5,3777.6 2894.5,3821 2857.1,3806.3 2857.1,3814.2 2891.8,3827.8 2873.8,3873.7 2857.1,3867.1      2857.1,3875 2871.2,3880.5 2866.3,3892.8 2874.2,3892.8 2878,3883.2 2902.6,3892.8 2922.7,3892.8 2880.7,3876.4 2898.6,3830.5      2997.7,3869.3 2997.7,3861.4 2901.3,3823.7 2918.3,3780.2 2997.7,3811.3 2997.7,3803.5 2921,3773.4 2936.9,3732.7 2997.7,3756.5      2997.7,3748.6 2939.6,3725.9    "/>
		</g>
	</g>
	<g>
		<circle class="st31" cx="2950.6" cy="3763.2" r="15.5"/>
	</g>
	<g>
		<circle class="st36" cx="2950.6" cy="3763.2" r="10.2"/>
	</g>
	<g>
		<path class="st14" d="M2947.6,3667.7c-18.6,1.2-33.7,16.4-35,35c-0.1,1.1-0.1,2.2-0.1,3.4c0.2,7.6,3,14.8,7.7,20.7l29.9,37.8    l29.9-37.8c4.5-5.7,7.4-12.7,7.7-20c0-0.5,0-1,0-1.5C2987.8,3683.6,2969.5,3666.2,2947.6,3667.7z"/>
	</g>
	<g>
		<circle class="st37" cx="2950.6" cy="3704.3" r="20"/>
	</g>
</g>
<g>
	<path class="st31" d="M3323.3,3618.8H3159c-3.6,0-6.5-2.9-6.5-6.5l0,0c0-3.6,2.9-6.5,6.5-6.5h164.3c3.6,0,6.5,2.9,6.5,6.5l0,0   C3329.8,3615.9,3326.9,3618.8,3323.3,3618.8z"/>
</g>
<g>
	<rect x="3095.9" y="3549.9" class="st18" width="2.5" height="59.3"/>
</g>
<g>
	<rect x="3095.9" y="3618.8" class="st18" width="2.5" height="13.8"/>
</g>
<g>
	<rect x="3076.5" y="3467.3" class="st1" width="330" height="42.3"/>
	<path class="st18" d="M3407.7,3510.8h-332.5V3466h332.5V3510.8z M3077.7,3508.3h327.5v-39.8h-327.5V3508.3z"/>
</g>
<g>
	<rect x="3109.1" y="3383.6" class="st31" width="269" height="211.7"/>
	<path class="st19" d="M3379.6,3596.8h-272v-214.7h272V3596.8z M3110.6,3593.8h266v-208.7h-266V3593.8z"/>
</g>
<g class="st38">
	<rect x="3109.1" y="3384.8" class="st19" width="267.4" height="173.1"/>
</g>
<g>
	<g>
		<path class="st19" d="M3246.1,3357.1L3246.1,3357.1c-2.1,0-3.8-1.7-3.8-3.8v-26.2c0-2.1,1.7-3.8,3.8-3.8l0,0    c2.1,0,3.8,1.7,3.8,3.8v26.2C3249.9,3355.4,3248.2,3357.1,3246.1,3357.1z"/>
	</g>
</g>
<g>
	<g>
		<path class="st19" d="M3284.1,3359.5L3284.1,3359.5c-1.7-1.3-2.1-3.6-0.8-5.3l18.2-24.6c1.3-1.7,3.6-2,5.3-0.8l0,0    c1.7,1.3,2.1,3.6,0.8,5.3l-18.2,24.6C3288.1,3360.4,3285.7,3360.8,3284.1,3359.5z"/>
	</g>
</g>
<g>
	<g>
		<path class="st19" d="M3198.7,3358.7l-18.2-24.6c-1.3-1.7-0.9-4.1,0.8-5.3l0,0c1.7-1.3,4.1-0.9,5.3,0.8l18.2,24.6    c1.3,1.7,0.9,4.1-0.8,5.3l0,0C3202.3,3360.8,3199.9,3360.4,3198.7,3358.7z"/>
	</g>
</g>
<g>
	<polygon class="st31" points="3406.5,3660.8 3076.5,3660.8 3076.5,3467.3 3241.5,3549.9 3406.5,3467.3  "/>
	<path class="st18" d="M3408,3662.3h-333v-197.5l166.5,83.4l166.5-83.4V3662.3z M3078,3659.3h327v-189.6l-163.5,81.9l-0.7-0.3   l-162.8-81.6V3659.3z"/>
</g>
<g>
	<path class="st31" d="M3078.1,3659.9l163.3-129.5l163.1,129.4c0.2,0.1,0.1,0.4-0.1,0.4h-326.2   C3078.1,3660.1,3078,3660,3078.1,3659.9z"/>
	<path class="st18" d="M3404.4,3661.6h-326.2c-0.7,0-1.4-0.5-1.6-1.2c-0.2-0.7,0.1-1.3,0.6-1.7l164.2-130.3l164,130.1   c0.6,0.4,0.8,1.1,0.7,1.8C3405.9,3661.1,3405.2,3661.6,3404.4,3661.6z M3082.1,3658.6h318.5l-159.2-126.3L3082.1,3658.6z"/>
</g>
<g>
	<path class="st31" d="M3318.9,3426.1h-150.6c-3.3,0-6.1-2.7-6.1-6.1l0,0c0-3.3,2.7-6.1,6.1-6.1h150.6c3.3,0,6.1,2.7,6.1,6.1l0,0   C3325,3423.4,3322.2,3426.1,3318.9,3426.1z"/>
</g>
<g>
	<path class="st31" d="M3318.9,3454.6h-150.6c-3.3,0-6.1-2.7-6.1-6.1l0,0c0-3.3,2.7-6.1,6.1-6.1h150.6c3.3,0,6.1,2.7,6.1,6.1l0,0   C3325,3451.9,3322.2,3454.6,3318.9,3454.6z"/>
</g>
<g>
	<path class="st31" d="M3318.9,3482.2h-150.6c-3.3,0-6.1-2.7-6.1-6.1l0,0c0-3.3,2.7-6.1,6.1-6.1h150.6c3.3,0,6.1,2.7,6.1,6.1l0,0   C3325,3479.5,3322.2,3482.2,3318.9,3482.2z"/>
</g>
<path class="st1" d="M2143.7,4031h-30.6h-52.9h-3.6H2001h-67.5h-17.4h-612.4h-109h-31.4h-5.3h-66.1c-9.9,0-18,8-18,17.8  s8,17.8,18,17.8h45.2c9.8,0,17.8,7.8,18,17.4c0.2,9.9-7.9,18.1-18,18.1h-28.2h-3.9c-9.9,0-18,8-18,17.8s8,17.8,18,17.8h12.1l0,0  c9.9,0,18,8,18,17.8s-8,17.8-18,17.8h-16.6h-18.1c-0.8,0-1.5,0.1-2.2,0.1h-28.7c-9.9,0-17.9,7.9-17.9,17.7c0,9.8,8,17.7,17.9,17.7  h30.6h52.9h3.6h9.2h46.5h0.3h109h612.3h17.4h98.6h7.9h63.5c9.9,0,18-8,18-17.8s-8-17.8-18-17.8h-45.2c-9.8,0-17.8-7.8-18-17.4  c-0.2-9.9,7.9-18.1,18-18.1h28.2h3.9c9.9,0,18-8,18-17.8s-8-17.8-18-17.8h-12.1l0,0c-9.9,0-18-8-18-17.8s8-17.8,18-17.8h16.6h18.1  c0.8,0,1.5-0.1,2.2-0.1h28.7c9.9,0,17.9-7.9,17.9-17.7C2161.6,4038.9,2153.6,4031,2143.7,4031z"/>
<path class="st2" d="M1338.4,4127.9H1977c2.6,0,4.7,2.1,4.7,4.7l0,0c0,2.6-2.1,4.7-4.7,4.7h-638.6c-2.6,0-4.7-2.1-4.7-4.7l0,0  C1333.7,4130,1335.8,4127.9,1338.4,4127.9z"/>
<rect x="1136.6" y="3711.2" class="st1" width="108" height="131.9"/>
<rect x="1152.1" y="3726.6" class="st31" width="78.3" height="101.2"/>
<rect x="985.3" y="3726.6" class="st1" width="131.9" height="108"/>
<rect x="1000.6" y="3741.9" class="st31" width="101.2" height="78.3"/>
<rect x="1165.5" y="3737.5" class="st39" width="52.4" height="79.3"/>
<rect x="1013.7" y="3754.5" class="st39" width="75.2" height="52.4"/>
<line class="st40" x1="1136.6" y1="3711.2" x2="1152.1" y2="3726.6"/>
<line class="st40" x1="1245.8" y1="3711.2" x2="1230.3" y2="3726.6"/>
<line class="st40" x1="1066.2" y1="3859.8" x2="1085.4" y2="3840.7"/>
<line class="st40" x1="1201.7" y1="3859.8" x2="1182.5" y2="3840.7"/>
<rect x="1008" y="3574" class="st1" width="108" height="131.9"/>
<rect x="1023.5" y="3589.4" class="st31" width="78.3" height="101.2"/>
<rect x="1036.9" y="3600.3" class="st39" width="52.4" height="79.3"/>
<line class="st40" x1="1008" y1="3574" x2="1023.5" y2="3589.4"/>
<line class="st40" x1="1117.2" y1="3574" x2="1101.8" y2="3589.4"/>
<line class="st40" x1="1008" y1="3706.4" x2="1023.5" y2="3691"/>
<line class="st40" x1="1117.2" y1="3706.4" x2="1101.8" y2="3691"/>
<line class="st40" x1="897.7" y1="3830.8" x2="878.6" y2="3848.6"/>
<line class="st40" x1="1000.7" y1="3742" x2="985.3" y2="3726.6"/>
<line class="st40" x1="1101.9" y1="3742" x2="1117.2" y2="3726.6"/>
<line class="st40" x1="1023.2" y1="3830.8" x2="1042.2" y2="3848.6"/>
<path class="st12" d="M1953.2,4095.3h-658.5v-324.4c0-12.2,9.9-22.1,22.1-22.1h614.3c12.2,0,22.1,9.9,22.1,22.1L1953.2,4095.3  L1953.2,4095.3z"/>
<path class="st13" d="M1964.5,4131.3h-682.6c-12.8,0-23.2-10.4-23.2-23.2v-12.8h729v12.8C1987.7,4120.9,1977.3,4131.3,1964.5,4131.3  z"/>
<path class="st11" d="M1684.1,4118.9h-122c-2.8,0-5-2.2-5-5l0,0c0-2.8,2.2-5,5-5h122c2.8,0,5,2.2,5,5l0,0  C1689.1,4116.6,1686.9,4118.9,1684.1,4118.9z"/>
<path class="st20" d="M1700.4,4026.7h-154.6c-12.2,0-22.1-9.9-22.1-22.1v-0.4c0-12.2,9.9-22.1,22.1-22.1h154.6  c12.2,0,22.1,9.9,22.1,22.1v0.4C1722.5,4016.8,1712.6,4026.7,1700.4,4026.7z"/>
<path class="st21" d="M1706.1,4020.7h-154.6c-12.2,0-22.1-9.9-22.1-22.1v-0.4c0-12.2,9.9-22.1,22.1-22.1h154.6  c12.2,0,22.1,9.9,22.1,22.1v0.4C1728.1,4010.8,1718.3,4020.7,1706.1,4020.7z"/>
<g>
	<path class="st31" d="M1597.8,4003.2v-9.6c0-0.6,0.4-1.1,1-1.1h6.8c0.6,0,0.9,0.3,0.9,0.8v0.1c0,0.5-0.3,0.8-0.9,0.8h-5.9v3.3h4.6   c0.6,0,0.9,0.3,0.9,0.7v0.1c0,0.5-0.3,0.8-0.9,0.8h-4.6v3.6h6.1c0.6,0,0.9,0.3,0.9,0.7v0.1c0,0.5-0.3,0.8-0.9,0.8h-6.9   C1598.2,4004.3,1597.8,4003.9,1597.8,4003.2z"/>
	<path class="st31" d="M1608.4,4003.5v-10c0-0.6,0.3-1.1,0.9-1.1h0.3c0.6,0,0.8,0.2,1.1,0.7l5.8,8.3v-8.1c0-0.6,0.2-0.9,0.8-0.9h0.2   c0.5,0,0.8,0.3,0.8,0.9v10c0,0.7-0.3,1.1-0.9,1.1h-0.1c-0.6,0-0.7-0.2-1-0.6l-6.1-8.7v8.4c0,0.6-0.3,0.9-0.8,0.9h-0.2   C1608.7,4004.3,1608.4,4004,1608.4,4003.5z"/>
	<path class="st31" d="M1622,3993.3l3.2,9l3.2-9c0.2-0.6,0.6-0.9,1-0.9c0.6,0,1.1,0.4,1.1,0.6l-4.2,10.6c-0.2,0.5-0.5,0.7-1.2,0.7   s-0.9-0.2-1.1-0.7l-4.2-10.6c-0.1-0.2,0.5-0.6,1.1-0.6C1621.4,3992.4,1621.8,3992.7,1622,3993.3z"/>
	<path class="st31" d="M1632.2,4003.5v-10.2c0-0.6,0.3-0.9,0.8-0.9h0.3c0.5,0,0.8,0.3,0.8,0.9v10.2c0,0.6-0.3,0.9-0.8,0.9h-0.3   C1632.5,4004.3,1632.2,4004,1632.2,4003.5z"/>
	<path class="st31" d="M1643.6,4000.8h-4.7l-1,2.7c-0.2,0.7-0.6,0.9-1,0.9c-0.5,0-1.1-0.4-1-0.6l4.2-10.8c0.1-0.4,0.4-0.6,1.3-0.6   s1.1,0.2,1.3,0.6l4.2,10.8c0.1,0.1-0.5,0.6-1,0.6c-0.4,0-0.9-0.2-1.1-0.9L1643.6,4000.8z M1639.3,3999.3h3.8l-1.9-5L1639.3,3999.3z   "/>
	<path class="st31" d="M1654.6,4003.6l-3.2-3.9h-1.3v3.8c0,0.5-0.3,0.9-0.8,0.9h-0.3c-0.5,0-0.8-0.3-0.8-1v-9.8c0-0.6,0.4-1.1,1-1.1   h3.3c2.9,0,4.4,1.2,4.4,3.5c0,2-1.2,3.3-3.5,3.5l3.4,4.1c0.1,0.1-0.3,0.8-1.1,0.8C1655.3,4004.3,1655,4004.1,1654.6,4003.6z    M1650.1,3998.2h2.5c1.7,0,2.5-0.8,2.5-2.1c0-1.4-0.9-2.1-2.6-2.1h-2.4V3998.2z"/>
</g>
<line class="st11" x1="1941.8" y1="3880.6" x2="1941.8" y2="3916.7"/>
<circle class="st1" cx="1623.8" cy="3758.9" r="5"/>
<rect x="1319.1" y="3768.9" class="st34" width="610" height="43"/>
<path class="st11" d="M1922.1,4073.9h-596c-3.9,0-7-3.1-7-7v-291c0-3.9,3.1-7,7-7h596c3.9,0,7,3.1,7,7v291  C1929.1,4070.7,1926,4073.9,1922.1,4073.9z"/>
<path class="st31" d="M1851.8,3798.5h-416.7c-3.9,0-7-3.1-7-7l0,0c0-3.9,3.1-7,7-7h416.7c3.9,0,7,3.1,7,7l0,0  C1858.8,3795.4,1855.6,3798.5,1851.8,3798.5z"/>
<circle class="st31" cx="1402.6" cy="3791.7" r="5.2"/>
<circle class="st14" cx="1379.4" cy="3791.7" r="5.2"/>
<circle class="st35" cx="1358.1" cy="3791.7" r="5.2"/>
<ellipse class="st2" cx="1302.9" cy="4172.1" rx="115.6" ry="11.4"/>
<path class="st12" d="M1369.2,4173.6h-128.4c-8.8,0-15.9-7.1-15.9-15.9v-246.8c0-8.8,7.1-15.9,15.9-15.9h128.4  c8.8,0,15.9,7.1,15.9,15.9v246.8C1385.2,4166.5,1378,4173.6,1369.2,4173.6z"/>
<circle class="st12" cx="1305.1" cy="4162.5" r="4.9"/>
<g>
	<rect x="1234.7" y="3912.3" class="st34" width="140.7" height="240.5"/>
	<g>
		<polygon class="st31" points="1335.4,3939.6 1375.4,3955.3 1375.4,3947.4 1338,3932.8 1346,3912.3 1338.2,3912.3 1331.2,3930.1     1285.9,3912.3 1265.8,3912.3 1328.5,3936.9 1310.4,3983.2 1234.7,3953.5 1234.7,3961.4 1307.7,3990 1291.8,4030.7 1234.7,4008.4     1234.7,4016.2 1289.1,4037.6 1272.1,4081 1234.7,4066.3 1234.7,4074.2 1269.4,4087.8 1251.5,4133.7 1234.7,4127.1 1234.7,4135     1248.8,4140.5 1244,4152.8 1251.8,4152.8 1255.6,4143.2 1280.2,4152.8 1300.3,4152.8 1258.3,4136.4 1276.3,4090.5 1375.4,4129.3     1375.4,4121.4 1278.9,4083.7 1295.9,4040.2 1375.4,4071.3 1375.4,4063.5 1298.6,4033.4 1314.6,3992.7 1375.4,4016.5     1375.4,4008.6 1317.2,3985.9   "/>
	</g>
	<circle class="st31" cx="1328.2" cy="4023.2" r="15.5"/>
	<circle class="st36" cx="1328.2" cy="4023.2" r="10.2"/>
	<path class="st14" d="M1325.2,3927.7c-18.6,1.2-33.7,16.4-35,35c-0.1,1.1-0.1,2.2-0.1,3.4c0.2,7.6,3,14.8,7.7,20.7l29.9,37.8   l29.9-37.8c4.5-5.7,7.4-12.7,7.7-20c0-0.5,0-1,0-1.5C1365.4,3943.6,1347.1,3926.2,1325.2,3927.7z"/>
	<circle class="st37" cx="1328.2" cy="3964.3" r="20"/>
</g>
<path class="st31" d="M1700.9,3878.8h-164.3c-3.6,0-6.5-2.9-6.5-6.5l0,0c0-3.6,2.9-6.5,6.5-6.5h164.3c3.6,0,6.5,2.9,6.5,6.5l0,0  C1707.4,3875.9,1704.5,3878.8,1700.9,3878.8z"/>
<line class="st11" x1="1474.8" y1="3809.9" x2="1474.8" y2="3869.2"/>
<line class="st11" x1="1474.8" y1="3878.8" x2="1474.8" y2="3892.6"/>
<rect x="1454.1" y="3727.3" class="st13" width="330" height="42.3"/>
<rect x="1486.7" y="3643.6" class="st22" width="269" height="211.7"/>
<rect x="1479.3" y="3653.9" class="st20" width="267.2" height="151.5"/>
<g>
	<path class="st19" d="M1623.8,3617.1L1623.8,3617.1c-2.1,0-3.8-1.7-3.8-3.8v-26.2c0-2.1,1.7-3.8,3.8-3.8l0,0c2.1,0,3.8,1.7,3.8,3.8   v26.2C1627.6,3615.4,1625.9,3617.1,1623.8,3617.1z"/>
</g>
<g>
	<path class="st19" d="M1661.7,3619.5L1661.7,3619.5c-1.7-1.3-2.1-3.6-0.8-5.3l18.2-24.6c1.3-1.7,3.6-2,5.3-0.8l0,0   c1.7,1.3,2,3.6,0.8,5.3l-18.2,24.6C1665.8,3620.4,1663.4,3620.8,1661.7,3619.5z"/>
</g>
<g>
	<path class="st19" d="M1576.3,3618.7l-18.2-24.6c-1.3-1.7-0.9-4.1,0.8-5.3l0,0c1.7-1.3,4.1-0.9,5.3,0.8l18.2,24.6   c1.3,1.7,0.9,4.1-0.8,5.3l0,0C1580,3620.8,1577.6,3620.4,1576.3,3618.7z"/>
</g>
<path class="st31" d="M1696.5,3686.1H1546c-3.3,0-6.1-2.7-6.1-6.1l0,0c0-3.3,2.7-6.1,6.1-6.1h150.6c3.3,0,6.1,2.7,6.1,6.1l0,0  C1702.6,3683.4,1699.9,3686.1,1696.5,3686.1z"/>
<path class="st31" d="M1696.5,3714.6H1546c-3.3,0-6.1-2.7-6.1-6.1l0,0c0-3.3,2.7-6.1,6.1-6.1h150.6c3.3,0,6.1,2.7,6.1,6.1l0,0  C1702.6,3711.9,1699.9,3714.6,1696.5,3714.6z"/>
<path class="st31" d="M1696.5,3742.2H1546c-3.3,0-6.1-2.7-6.1-6.1l0,0c0-3.3,2.7-6.1,6.1-6.1h150.6c3.3,0,6.1,2.7,6.1,6.1l0,0  C1702.6,3739.5,1699.9,3742.2,1696.5,3742.2z"/>
<rect x="4155.3" y="2284" class="st33" width="710" height="782"/>
<path class="st20" d="M185.3,1519.5c-10.8-17-29-20.8-47.1-29l-36.8-16.2c-28.2-14.7-56.1-32.3-86.1-43.1  c-18.5-6.6-35.3-8.8-58.1-9.5l-71.6-1.1c-22,0.5-47.7-0.8-68.8,5.4c-6.2,1.8-9.2,4.1-14.8,10.7l-23,26.8l0.7,1.1  c-12,18.8-17.2,23.1-15.6,48.5l-2.1,4.3l1.1,25.2c-3.4,6.1-4.2,8.3-3.5,15.4c0.8,7.8,2.9,14.6,7.4,22.2l1.8,15.9l92.1-1.4l223.5,4.3  l5.3-3.9c28-0.4,56-0.7,84-1.1l4.5-1.4c10.4-3.2,15.1-4.1,16.1-15.6l0.6-7.1c6.9-13.8,3.8-23.5-3.2-36.5  C189.9,1527.7,188.9,1524.2,185.3,1519.5z"/>
<path class="st41" d="M185.3,1521.2c-10.8-17-29-20.8-47.1-29l-36.8-16.2c-28.2-14.7-56.1-32.3-86.1-43.1  c-18.5-6.6-35.3-8.8-58.1-9.5l-71.6-1.1c-22,0.5-47.7-0.8-68.8,5.4c-6.2,1.8-9.2,4.1-14.8,10.7l-23,26.8l0.7,1.1  c-12,18.8-17.2,23.1-15.6,48.5l-2.1,4.3l1.1,25.2c-3.4,6.1-4.2,8.3-3.5,15.4c0.8,7.8,2.9,14.6,7.4,22.2l1.8,15.9l92.1-1.4l223.5,4.3  l5.3-3.9c28-0.4,56-0.7,84-1.1l4.5-1.4c10.4-3.2,15.1-4.1,16.1-15.6l0.6-7.1c6.9-13.8,3.8-23.5-3.2-36.5  C189.9,1529.4,188.9,1525.9,185.3,1521.2z"/>
<path class="st42" d="M193.9,1537L193.9,1537c-1.8-5.8-7.1-9.9-13.3-10.3l-363.2-20c-8.3-0.5-16.3-3.5-22.7-8.7l-15.8-12.8  c0,0-7,8.2-8.9,10.1c-0.7,0.8-1.5,3-2.1,5.5l-3.5-0.2c-0.6,4.4-0.7,9.7-0.2,16.6l-2.1,4.2l1.1,24.7c-3.4,6-4.3,8.1-3.5,15.1  c0.8,7.7,2.9,14.3,7.5,21.8l1.8,15.6l92.6-1.4l224.7,4.2l5.3-3.8c28.1-0.3,56.3-0.7,84.4-1l4.5-1.3c10.5-3.1,15.2-4.1,16.2-15.3  l0.6-6.9C204,1559.2,201,1549.7,193.9,1537z"/>
<path class="st31" d="M-46.6,1430.8l7.3,55.2l0,0c35.4,2.2,73.4,4.4,108.8,6.4l-6.4-29.4C27,1443.8-4.8,1432.4-46.6,1430.8z"/>
<path class="st21" d="M187.5,1521.2c-10.8-17-29.1-20.8-47.4-29l-37-16.2c-28.4-14.7-56.4-32.3-86.5-43.1  c-18.6-6.6-35.4-8.8-58.4-9.5l-71.9-1.1c-22.1,0.5-47.9-0.8-69.2,5.4c-6.3,1.8-9.3,4.1-14.8,10.7l-23.2,26.8l0.7,1.1  c-12,18.8-17.2,23.1-15.7,48.5l-2.1,4.3l1.1,25.2c-3.4,6.1-4.3,8.3-3.5,15.4c0.8,7.8,2.9,14.6,7.5,22.2l1.8,15.9l92.6-1.4l224.7,4.3  l5.3-3.9c28.1-0.4,56.3-0.7,84.4-1.1l4.5-1.4c10.5-3.2,15.2-4.1,16.2-15.6l0.6-7.1c6.9-13.8,3.8-23.5-3.2-36.5  C192.2,1529.4,191.1,1525.9,187.5,1521.2z"/>
<path class="st32" d="M134.5,1533.9c-27.5,0-49.7,23-49.5,51.4c0,4.7,0.7,9.2,1.8,13.5l2.9-2.1c28-0.4,56-0.7,84-1.1l4.5-1.4  c2.3-0.7,4.2-1.3,6-1.9c0.3-2.3,0.4-4.7,0.4-7.1C184.4,1556.9,162,1533.9,134.5,1533.9z"/>
<polygon class="st43" points="176.4,1594.7 176.4,1594.7 173.6,1595.6 "/>
<path class="st19" d="M132.6,1549.9c-23.1,0-41.9,20.8-43.6,47.2l0.7-0.5c28-0.4,56-0.7,84-1.1l2.8-0.9  C173.5,1569.5,155,1549.9,132.6,1549.9z"/>
<polygon class="st43" points="-151.9,1596.5 -151.9,1596.5 -171.3,1596.8 "/>
<circle class="st19" cx="-208.5" cy="1511.3" r="11"/>
<path class="st31" d="M-208.5,1501.8c-5.3,0-9.5,4.3-9.5,9.5c0,5.3,4.3,9.5,9.5,9.5s9.5-4.3,9.5-9.5  C-198.9,1506.1-203.2,1501.8-208.5,1501.8z"/>
<g>
	<path class="st0" d="M-19,1510.1l-15.9-0.4c-1.9,0-3.4,1.3-3.5,2.9l-0.1,2.5c0,1.7,1.5,3,3.3,3.1l15.9,0.4c1.9,0,3.4-1.3,3.5-2.9   l0.1-2.5C-15.6,1511.6-17.1,1510.2-19,1510.1z"/>
	<path class="st21" d="M-18.3,1510.2l-17.3-0.4c-2-0.1-3.7,1.4-3.8,3.2l-0.1,2.7c0,1.8,1.6,3.3,3.6,3.4l17.3,0.4   c2,0.1,3.7-1.4,3.8-3.2l0.1-2.7C-14.6,1511.7-16.3,1510.2-18.3,1510.2z"/>
</g>
<path class="st32" d="M117.1,1515l-11.9-0.4c-0.8,0-1.5,0.6-1.5,1.4l-0.2,5.1c0,0.8,0.6,1.5,1.4,1.5l11.9,0.4c0.8,0,1.5-0.6,1.5-1.4  l0.2-5.1C118.6,1515.7,117.9,1515,117.1,1515z"/>
<path class="st19" d="M187,1518.6c-3.4-4.7-10-9.3-14.8-12.1c-4.9-3-7.5-3.7-10.9-0.1c-4.5,4.8-6.8,8.9-1.3,11.5l26.7,12.8  c2.4,1.1,6.9,4.3,5.6-0.2C191.1,1525.9,190,1522.7,187,1518.6z"/>
<path class="st22" d="M-184.9,1459.1l10.3,5.1c5.1-8.5,10.3-16.8,15.7-25c-6.4,1.4-13,3.3-20.2,5.7  C-188.8,1449.2-196.2,1451.5-184.9,1459.1z"/>
<path class="st44" d="M-136.6,1435c-11.2,14.9-13.6,19.6-15.9,38.1c26.9,10.1,56.1,9.4,84.5,11.1l1.4-53.1h-11.1  C-100.2,1431.4-118.1,1432.1-136.6,1435z"/>
<path class="st44" d="M-47,1431.5l7.3,55.2l0,0c35.4,2.2,73.4,4.4,108.8,6.4l-6.4-29.4C26.6,1444.6-5.2,1433.2-47,1431.5z"/>
<path class="st21" d="M-135.8,1435.8c-11.2,14.9-13.6,19.6-15.9,38.1c26.9,10.1,56.1,9.4,84.5,11.1l1.4-53.1h-11.1  C-99.4,1432.2-117.4,1432.9-135.8,1435.8z"/>
<path class="st21" d="M-45.7,1431.8l7.3,55.2l0,0c35.4,2.2,73.4,4.4,108.8,6.4L64,1464C27.9,1444.8-3.9,1433.4-45.7,1431.8z"/>
<path class="st31" d="M34.3,1490.1c3.9,0.2,7.7,0.5,11.5,0.7l11.5-28c-3.3-1.7-6.6-3.3-9.8-4.9L34.3,1490.1z"/>
<path class="st31" d="M20.9,1488.7l4.1,0.2l14.3-34.8c-1.2-0.5-2.4-1-3.6-1.6L20.9,1488.7z"/>
<path class="st31" d="M-68.4,1483.6l0.3-9.9l-4,9.7C-70.9,1483.5-69.7,1483.5-68.4,1483.6z"/>
<path class="st31" d="M-42.7,1444.7l4.6-11.2c-2-0.1-4.1-0.2-6.1-0.3L-42.7,1444.7z"/>
<path class="st21" d="M70.9,1494.3l-2.8,75.7c-0.2,4.6-4,8.2-8.6,8.2h-95.7c-20.3,0-36.5-16.9-35.5-37.1l4.7-56.3"/>
<path class="st32" d="M123.5,1509l-300.5-13.4c-10-0.5-18.2-5.5-25.4-12.4l-18.6-18"/>
<line class="st32" x1="-232.4" y1="1505.3" x2="-214.2" y2="1535.3"/>
<polyline class="st32" points="104.4,1494.9 141.6,1522.4 200.1,1550.7 "/>
<path class="st22" d="M97.5,1486.3c-5.7-4.4-11.8-8.3-18-11.9l4.5,19.8l15.4,0.8C107.1,1495.4,102.4,1490.4,97.5,1486.3z"/>
<path class="st19" d="M-221,1463.6c-14.2,13.7-19.1,27.3-16,51.1c7.2-9.1,16.2-19.5,23.7-28.3l3.2-3.6c3.3-3.8,3.7-4,0.6-8  L-221,1463.6z"/>
<path class="st0" d="M111,1521.7l-6.1-0.2c-0.3,0-0.5-0.3-0.5-0.5l0.3-5c0-0.3,0.3-0.5,0.5-0.5l5.8,0.3  C111,1515.8,111,1521.7,111,1521.7z"/>
<path class="st41" d="M121.9,1544.1c0,0,40.3-2.7,54.5,31.1C176.4,1575.2,169.1,1531.8,121.9,1544.1z"/>
<g>
	<path class="st31" d="M-135.8,1477.2c1.2,0.3,2.4,0.6,3.7,0.8l17.8-43.4c-1.4,0.1-2.8,0.2-4.1,0.3L-135.8,1477.2z"/>
	<path class="st31" d="M-147,1474c2.3,0.8,4.7,1.5,7,2.1l16.7-40.7c-2.8,0.3-5.6,0.7-8.4,1L-147,1474z"/>
</g>
<path class="st22" d="M187.6,1584.7v-2.9c0-2.1,1.7-3.7,3.7-3.7h9c2.1,0,3.7,1.7,3.7,3.7v2.9c0,2.1-1.7,3.7-3.7,3.7h-9  C189.3,1588.4,187.6,1586.7,187.6,1584.7z"/>
<polygon class="st41" points="-140.5,1588.4 -19.7,1588.4 -140.5,1578.1 "/>
<path class="st32" d="M-190,1528.4c-23.7,0-43.4,17.6-48.3,41.1c1.2,3.9,3,7.7,5.4,11.7l1.8,16.4l88.4-1.4  c1.4-4.9,2.2-10.1,2.2-15.5C-140.5,1551.9-162.6,1528.4-190,1528.4z"/>
<path class="st19" d="M-191.4,1545.1c-22.2,0-40.2,19.5-40.2,43.6c0,3.1,0.3,6.1,0.9,9l78.9-1.2c0.4-2.5,0.6-5.2,0.6-7.8  C-151.2,1564.6-169.2,1545.1-191.4,1545.1z"/>
<path class="st19" d="M-156,1594.7c0.1-1,0.1-2.1,0.1-3.1c0-1.5-0.1-3-0.3-4.5c0-0.1,0-0.1,0-0.1c-0.1-0.7-0.2-1.3-0.3-2  c0-0.1,0-0.2,0-0.2c-0.1-0.6-0.3-1.3-0.4-1.9c0-0.1,0-0.1,0-0.2c-0.7-2.8-1.7-5.5-2.9-8.1l0,0c-0.3-0.6-0.6-1.2-1-1.8l-0.1-0.1  c-0.3-0.6-0.7-1.1-1-1.7l-0.1-0.1c-0.4-0.6-0.8-1.1-1.2-1.7l0,0c-1.7-2.3-3.6-4.4-5.7-6.2l-0.1-0.1c-0.5-0.4-1-0.8-1.5-1.3  c0,0,0,0-0.1-0.1l0,0c-6.5-5.1-14.7-8.2-23.6-8.2c-21.1,0-38.3,17.1-38.3,38.3c0,21.1,17.1,38.3,38.3,38.3  C-174.1,1629.9-157.6,1614.5-156,1594.7C-156,1594.8-156,1594.8-156,1594.7C-156,1594.8-156,1594.8-156,1594.7z"/>
<path class="st31" d="M-192.8,1569.3c-12.3,0-22.3,10-22.3,22.3s10,22.3,22.3,22.3c0.3,0,0.6,0,0.8,0c11.9-0.4,21.5-10.3,21.5-22.3  c0-11.8-9.2-21.5-20.9-22.3C-191.9,1569.3-192.4,1569.3-192.8,1569.3z"/>
<path class="st41" d="M-215.4,1547.7c0,0,30.5-26.1,61,11.7C-154.4,1559.4-177.4,1514.1-215.4,1547.7z"/>
<g>
	<line class="st45" x1="-191.4" y1="1567.1" x2="-191.4" y2="1616.6"/>
	<line class="st45" x1="-166.7" y1="1592.4" x2="-216.2" y2="1592.4"/>
	<line class="st45" x1="-173.3" y1="1575.5" x2="-209.5" y2="1609.3"/>
	<line class="st45" x1="-173.8" y1="1609.8" x2="-209" y2="1575"/>
	<circle class="st19" cx="-191.4" cy="1592.4" r="5.1"/>
</g>
<g>
	<path class="st19" d="M169.5,1594.7c0.1-1,0.1-2.1,0.1-3.1c0-1.5-0.1-3-0.3-4.5c0-0.1,0-0.1,0-0.1c-0.1-0.7-0.2-1.3-0.3-2   c0-0.1,0-0.2,0-0.2c-0.1-0.6-0.3-1.3-0.4-1.9c0-0.1,0-0.1,0-0.2c-0.7-2.8-1.7-5.5-2.9-8.1l0,0c-0.3-0.6-0.6-1.2-1-1.8l-0.1-0.1   c-0.3-0.6-0.7-1.1-1-1.7l-0.1-0.1c-0.4-0.6-0.8-1.1-1.2-1.7l0,0c-1.7-2.3-3.6-4.4-5.7-6.2l-0.1-0.1c-0.5-0.4-1-0.8-1.5-1.3   c0,0,0,0-0.1-0.1l0,0c-6.5-5.1-14.7-8.2-23.6-8.2c-21.1,0-38.3,17.1-38.3,38.3c0,21.1,17.1,38.3,38.3,38.3   C151.5,1629.9,167.9,1614.5,169.5,1594.7C169.5,1594.8,169.5,1594.8,169.5,1594.7C169.5,1594.8,169.5,1594.8,169.5,1594.7z"/>
	<path class="st31" d="M132.7,1569.3c-12.3,0-22.3,10-22.3,22.3s10,22.3,22.3,22.3s22.3-10,22.3-22.3S145,1569.3,132.7,1569.3z"/>
	<g>
		<line class="st45" x1="132.7" y1="1567.1" x2="132.7" y2="1616.6"/>
		<line class="st45" x1="157.5" y1="1592.4" x2="108" y2="1592.4"/>
		<line class="st45" x1="150.8" y1="1575.5" x2="114.6" y2="1609.3"/>
		<line class="st45" x1="150.3" y1="1609.8" x2="115.1" y2="1575"/>
		
			<ellipse transform="matrix(9.968666e-02 -0.995 0.995 9.968666e-02 -1465.0784 1565.668)" class="st19" cx="132.6" cy="1592.4" rx="5.1" ry="5.1"/>
	</g>
</g>
<path class="st22" d="M60,1497.8l-12.5,0.6c-3.7,0.2-6.6-3.2-6.4-7.4l0.1-1.4c0.2-4.1,3.6-7.2,7.2-6.6l12.3,2.1  c2.4,0.4,4.1,2.8,3.9,5.6l-0.1,2C64.4,1495.4,62.4,1497.6,60,1497.8z"/>
<polygon class="st46" points="1486.7,3731.4 1619.1,3794.6 1755.7,3726.6 1754.1,3777.1 1662.3,3845.6 1576.3,3832.6 1511.3,3800.6   1484.8,3772.1 1486.7,3763.9 "/>
<polygon class="st12" points="1784.1,3920.8 1454.1,3920.8 1454.1,3727.3 1619.1,3809.9 1784.1,3727.3 "/>
<path class="st12" d="M1455.8,3919.9l163.3-129.5l163.1,129.4c0.2,0.1,0.1,0.4-0.1,0.4h-326.3  C1455.7,3920.1,1455.6,3920,1455.8,3919.9z"/>
<path class="st47" d="M1461.8,3918.5l157.4-124.9l157.2,124.8c0.2,0.1,0.1,0.4-0.1,0.4h-314.5  C1461.7,3918.7,1461.7,3918.6,1461.8,3918.5z"/>
<line class="st11" x1="1635.8" y1="3905.2" x2="1694.6" y2="3905.2"/>
<line class="st11" x1="1770.6" y1="3765.4" x2="1770.6" y2="3806.5"/>
<line class="st11" x1="1770.6" y1="3818.3" x2="1770.6" y2="3828.3"/>
<path class="st34" d="M1455.8,3919.9"/>
<path class="st22" d="M1721.8,683.5l-0.4-1.3c-0.6-3.2-2.4-6.1-5.1-8c-2-1.4-4.3-2.1-6.7-2.2l-28.3-2.4v-0.1h-1l-2.2-0.2l-14.2-14.2  c-2.6-2.6-6.1-4-9.8-4h-43.5h-2l-1.5,1.3l-19.5,17.1h-0.6h-1.5v0.1l-10.8,0.9l-0.9,0.1l-0.4,0.2l-0.8,0.1l-1.5,0.2  c-3.4,0.4-6.2,3.1-6.6,6.6l0,0l0,0l-1,9.2c-2.2,1.3-3.7,3.7-3.7,6.5v1.6c0,6.6,4,9.8,7.6,11.9l0.8,0.5c2.4,1.4,5.2,2.2,8,2.2h2.8  h1.9c2.8,5.1,8.2,8.4,14.4,8.4s11.5-3.4,14.4-8.4h2h63.1h2.2c2.8,5.1,8.2,8.4,14.4,8.4c6.3,0,11.7-3.5,14.6-8.8l1.5,0.1l1.8,0.2h0.3  h0.3c4.2,0,8.3-1.7,11.2-4.9c2.5-2.7,5.1-5.8,5.1-11.2v-3.1C1725.8,687.7,1724.3,685,1721.8,683.5z"/>
<line class="st21" x1="1680.4" y1="669.4" x2="1585.4" y2="669.4"/>
<line class="st21" x1="1634.2" y1="651" x2="1634.2" y2="668.1"/>
<path class="st20" d="M1590.1,677.7h-0.5h-1.4v0.1l-10.1,0.7l-0.9,0.1l-0.4,0.2l-0.7,0.1l-1.4,0.2c-3.1,0.3-5.7,2.5-6.1,5.3l0,0l0,0  l-0.9,7.4c-2.1,1.1-3.4,3-3.4,5.3v1.3c0,5.3,3.7,7.9,7.1,9.6l0.8,0.4c2.2,1.2,4.9,1.8,7.5,1.8h2.6h1.7c2.6,4,7.6,6.8,13.3,6.8  s10.7-2.7,13.3-6.8h1.9h58.7h2.1c2.6,4,7.6,6.8,13.3,6.8c5.9,0,10.9-2.8,13.6-7.1l1.4,0.1l1.6,0.1h0.3h0.3c3.9,0,7.8-1.4,10.4-3.9  c2.4-2.2,4.7-4.7,4.7-9.1v-2.5c0-2.3-1.4-4.4-3.6-5.7l-0.4-1.1c-0.5-2.6-2.2-5-4.8-6.5c-1.8-1.1-4-1.7-6.3-1.7l-26.3-2v-0.1h-0.9  l-0.7-0.1L1590.1,677.7L1590.1,677.7z"/>
<line class="st23" x1="1635.2" y1="677.6" x2="1635.2" y2="700.7"/>
<path class="st22" d="M1690.3,718.3c-7.2,0-13.2-5.2-14.7-11.9c0-0.6,0.1-2.2,0.1-3c0-0.9,0.1-1.7,0.1-2.1c0-6.4,7.2-12.5,14.6-12.5  c7.1,0,14.6,7,14.6,13.6c0,0.3,0,1,0.1,1.9c0,0.3,0,0.8,0.1,1.3C1703.9,712.7,1697.8,718.3,1690.3,718.3z"/>
<path class="st22" d="M1594.9,718.3c-7.2,0-13.2-5.2-14.7-11.9c0-0.6,0.1-2.2,0.1-3c0-0.9,0.1-1.7,0.1-2.1c0-6.4,7.2-12.5,14.6-12.5  c7.1,0,14.6,7,14.6,13.6c0,0.3,0,1,0.1,1.9c0,0.3,0,0.8,0.1,1.3C1608.6,712.7,1602.4,718.3,1594.9,718.3z"/>
<line class="st21" x1="1555.8" y1="705.1" x2="1524.1" y2="705.1"/>
<line class="st21" x1="1555.8" y1="679.6" x2="1535.6" y2="679.6"/>
<line class="st21" x1="1541.3" y1="692.4" x2="1498.1" y2="692.4"/>
</svg>