<?xml version="1.0" encoding="utf-8"?>
<!-- Generator: Adobe Illustrator 16.0.3, SVG Export Plug-In . SVG Version: 6.00 Build 0)  -->
<!DOCTYPE svg PUBLIC "-//W3C//DTD SVG 1.1//EN" "http://www.w3.org/Graphics/SVG/1.1/DTD/svg11.dtd">
<svg version="1.1" id="Capa_1" xmlns="http://www.w3.org/2000/svg" xmlns:xlink="http://www.w3.org/1999/xlink" x="0px" y="0px"
	 width="310.651px" height="50.793px" viewBox="0 0 310.651 50.793" enable-background="new 0 0 310.651 50.793"
	 xml:space="preserve">
<g>
	<defs>
		<rect id="SVGID_1_" width="310.651" height="50.793"/>
	</defs>
	<clipPath id="SVGID_2_">
		<use xlink:href="#SVGID_1_"  overflow="visible"/>
	</clipPath>
	<path clip-path="url(#SVGID_2_)" fill-rule="evenodd" clip-rule="evenodd" fill="#FFFFFF" d="M6.627,0C2.963,0,0,2.983,0,6.661
		v42.988h43.024c3.669,0,6.634-2.984,6.634-6.669L49.664,0H6.627z M38.06,35.835l-26.463,4.782V13.906L38.06,9.125V35.835z"/>
	<path clip-path="url(#SVGID_2_)" fill="#FFFFFF" d="M134.667,14.416c-7.814,0.009-13.352,5.638-13.375,14.776
		c0,8.312,6.642,13.495,13.429,13.501c4.038,0,6.546-0.631,8.005-1.825v-4.622c-2.075,1.022-4.535,1.348-6.716,1.348
		c-4.179,0.013-7.543-2.275-8.091-5.942l-0.046-0.328h4.879c4.595,0.003,7.83-0.413,9.873-1.424c2.03-1.025,2.917-2.551,2.93-5.028
		C145.556,18.414,140.336,14.425,134.667,14.416 M137.85,26.391c-1.265,0.441-3.297,0.614-6.594,0.614h-3.407l0.02-0.296
		l0.051-0.928c0.15-3.305,2.599-6.175,6.131-6.175c1.635,0,3.02,0.356,4.014,1.101c0.989,0.74,1.546,1.891,1.546,3.336
		C139.641,25.102,139.124,25.963,137.85,26.391 M148.92,24.958l0.002,17.261h6.409V26.198c0.001-2.147,0.425-3.695,1.302-4.719
		c0.888-1.031,2.189-1.483,3.792-1.477c0.646,0,1.228,0.052,1.744,0.141v-5.076c-0.809-0.407-1.862-0.667-3.243-0.667
		C151.747,14.411,148.945,19.497,148.92,24.958 M64.623,42.219h6.4V7.448h-6.4V42.219z M88.279,14.416
		c-8.541,0.009-12.265,5.848-12.288,11.586v16.217h6.364v-15.75c0-2.025,0.528-3.653,1.476-4.777
		c0.949-1.125,2.303-1.73,3.879-1.723c1.839-0.007,3.339,0.532,4.371,1.702c1.029,1.177,1.552,2.934,1.552,5.309l0.006,15.239h6.352
		V26.37C99.978,18.649,94.718,14.432,88.279,14.416 M111.237,7.448h-6.331l0.02,25.089c0.037,6.367,3.242,10.122,10.17,10.156
		c2.936-0.006,4.702-0.962,5.431-2.491V36.25c-1.142,0.504-2.69,0.729-4.605,0.729c-1.438,0-2.635-0.363-3.459-1.236
		c-0.814-0.872-1.226-2.191-1.226-4.034v-11.74h5.547c2.713-0.007,3.845-1.73,3.856-3.013v-2.54h-9.403V7.448z"/>
	<path clip-path="url(#SVGID_2_)" fill="#FFFFFF" d="M208.935,29.9c2.032-1.026,2.919-2.552,2.928-5.029
		c0-6.456-5.218-10.446-10.879-10.455c-7.817,0.009-13.36,5.638-13.377,14.777c0,8.314,6.642,13.493,13.421,13.5
		c4.038,0,6.553-0.629,8.013-1.825v-4.622c-2.079,1.021-4.54,1.35-6.716,1.35c-4.184,0.011-7.547-2.277-8.096-5.944l-0.045-0.328
		h4.883C203.655,31.326,206.9,30.91,208.935,29.9 M194.159,27.005l0.024-0.295l0.045-0.929c0.155-3.305,2.598-6.175,6.127-6.175
		c1.65,0,3.025,0.357,4.02,1.101c0.993,0.74,1.553,1.892,1.546,3.339c0.024,1.056-0.483,1.917-1.761,2.345
		c-1.267,0.441-3.294,0.614-6.594,0.614H194.159z"/>
	<path clip-path="url(#SVGID_2_)" fill="#FFFFFF" d="M270.774,24.958V42.22h6.413V26.198c0-2.147,0.431-3.695,1.307-4.719
		c0.891-1.032,2.195-1.483,3.792-1.477c0.649,0,1.232,0.052,1.743,0.141v-5.076c-0.808-0.407-1.86-0.667-3.249-0.667
		C273.607,14.411,270.806,19.498,270.774,24.958"/>
	<path clip-path="url(#SVGID_2_)" fill="#FFFFFF" d="M173.863,42.586c-4.678,0-8.164-2.555-8.164-5.312V34.21h0.235
		c1.372,1.354,4.622,2.563,7.637,2.563c3.115,0,4.621-0.956,4.621-2.965c0-1.554-0.897-2.301-5.287-2.959
		c-5.368-0.799-7.958-3.058-7.958-7.169c0-5.07,4.284-9.38,10.791-9.38c5.763,0,8.114,3.156,8.114,5.767v2.555h-0.234
		c-1.326-1.402-4.242-2.503-7.26-2.503c-3.873,0-5.093,1.249-5.093,3.008c0,1.356,0.755,1.912,5.093,2.657
		c5.27,0.905,8.105,3.361,8.105,7.676C184.464,39.179,180.69,42.586,173.863,42.586"/>
	<path clip-path="url(#SVGID_2_)" fill="#FFFFFF" d="M238.122,34.494c0.047,1.103,0.102,2.559,0.102,3.46
		c0,6.771-4.243,12.839-12.45,12.839c-5.234,0-8.819-2.705-8.819-5.918v-3.06h0.281c1.516,1.706,4.431,2.909,8.069,2.909
		c4.566,0,6.64-2.307,6.64-6.221c0-0.396,0-0.951-0.044-1.407c0-0.396-0.044-1.101-0.044-1.351V35.1
		c-0.521,1.953-2.924,4.009-6.552,4.009c-6.182,0-10.564-4.565-10.564-10.938c0-7.623,4.708-13.792,12.914-13.792
		c6.326,0,10.373,4.916,10.373,11.842v4.611C238.027,31.736,238.073,33.288,238.122,34.494 M221.193,27.323
		c0,3.547,2.045,6.182,5.097,6.182c3.189,0,5.476-2.533,5.476-6.89c0-4.256-2.006-6.336-4.806-6.336
		C223.677,20.279,221.193,23.221,221.193,27.323"/>
	<path clip-path="url(#SVGID_2_)" fill="#FFFFFF" d="M298.355,14.299c7.804,0,12.295,6.518,12.295,13.695
		c0,8.122-4.491,14.592-12.875,14.592c-7.808,0-12.295-6.47-12.295-13.642C285.48,20.817,289.968,14.299,298.355,14.299
		 M297.771,19.975c-3.865,0-5.832,3.343-5.832,7.998c0,5.588,1.967,8.939,6.424,8.939c3.92,0,5.832-3.352,5.832-7.949
		C304.194,23.318,302.184,19.975,297.771,19.975"/>
	<path clip-path="url(#SVGID_2_)" fill="#FFFFFF" d="M254.156,42.772c8.509-0.011,12.226-5.869,12.242-11.627V14.874h-6.335v15.807
		c0,2.032-0.534,3.664-1.476,4.789c-0.946,1.135-2.3,1.735-3.866,1.733c-1.831,0.002-3.339-0.538-4.36-1.712
		c-1.022-1.177-1.545-2.943-1.545-5.33l-0.008-15.29h-6.332v15.908C242.491,38.532,247.724,42.758,254.156,42.772"/>
</g>
</svg>
