<svg xmlns="http://www.w3.org/2000/svg" width="172.929" height="28.277" viewBox="0 0 172.929 28.277"><defs><style>.a,.b{fill:#0855c4;}.a{fill-rule:evenodd;}</style></defs><g transform="translate(-6.2 -8.8)"><path class="a" d="M9.894,8.836A3.715,3.715,0,0,0,6.2,12.53V36.473H30.143a3.7,3.7,0,0,0,3.694-3.73V8.8H9.894ZM27.408,28.764,12.665,31.429V16.58l14.742-2.664Z"/><path class="b" d="M146.469,24.472c-4.334,0-7.424,3.126-7.46,8.241a7.446,7.446,0,0,0,7.46,7.531c2.238,0,3.659-.355,4.44-1.03V36.657a8.651,8.651,0,0,1-3.73.746c-2.345,0-4.192-1.279-4.512-3.3l-.036-.178h2.735a13.241,13.241,0,0,0,5.506-.782,2.782,2.782,0,0,0,1.634-2.806,5.774,5.774,0,0,0-6.039-5.861m1.776,6.643a12.192,12.192,0,0,1-3.659.355H142.7v-.178l.036-.533a3.465,3.465,0,0,1,3.41-3.446,3.878,3.878,0,0,1,2.238.6,2.2,2.2,0,0,1,.853,1.847,1.29,1.29,0,0,1-.995,1.35m6.181-.782v9.591h3.552V31.008a4.078,4.078,0,0,1,.71-2.629,2.632,2.632,0,0,1,2.1-.817,7.567,7.567,0,0,1,.959.071V24.792a4.2,4.2,0,0,0-1.812-.355c-3.943.036-5.506,2.842-5.506,5.9M107.5,39.925h3.552V20.6H107.5Zm13.144-15.453c-4.76,0-6.821,3.268-6.856,6.465v8.987h3.552V31.186a4.046,4.046,0,0,1,.817-2.664,2.705,2.705,0,0,1,2.167-.959,2.965,2.965,0,0,1,2.416.959,4.361,4.361,0,0,1,.853,2.948v8.49h3.552V31.115a6.189,6.189,0,0,0-6.5-6.643M133.432,20.6h-3.517V34.561c.036,3.552,1.812,5.648,5.648,5.648,1.634,0,2.629-.533,3.02-1.385v-2.2a6.451,6.451,0,0,1-2.558.391,2.584,2.584,0,0,1-1.918-.675,3.126,3.126,0,0,1-.675-2.238V27.563h3.091c1.492,0,2.131-.959,2.131-1.67V24.472h-5.222Z" transform="translate(-65.315 -7.608)"/><path class="b" d="M312,40.032a2.782,2.782,0,0,0,1.634-2.806A5.837,5.837,0,0,0,307.56,31.4c-4.334,0-7.424,3.126-7.46,8.241a7.446,7.446,0,0,0,7.46,7.531c2.238,0,3.659-.355,4.476-1.03V43.585a8.651,8.651,0,0,1-3.73.746c-2.345,0-4.192-1.279-4.512-3.3l-.036-.178h2.735A13.129,13.129,0,0,0,312,40.032m-8.206-1.6v-.178l.035-.533a3.465,3.465,0,0,1,3.41-3.446,3.878,3.878,0,0,1,2.238.6,2.2,2.2,0,0,1,.853,1.847,1.3,1.3,0,0,1-.995,1.314,12.192,12.192,0,0,1-3.659.355h-1.883Z" transform="translate(-189.496 -14.572)"/><path class="b" d="M430.5,37.3v9.591h3.588V37.972a4.078,4.078,0,0,1,.711-2.629,2.631,2.631,0,0,1,2.1-.817,7.568,7.568,0,0,1,.959.071V31.755a4.2,4.2,0,0,0-1.812-.355c-3.943.036-5.506,2.842-5.542,5.9" transform="translate(-273.573 -14.572)"/><path class="b" d="M269.673,47.1c-2.593,0-4.547-1.421-4.547-2.948V42.448h.142a6.846,6.846,0,0,0,4.263,1.421c1.741,0,2.558-.533,2.558-1.634,0-.853-.5-1.279-2.948-1.634-2.984-.462-4.44-1.705-4.44-3.979,0-2.806,2.38-5.222,6-5.222,3.2,0,4.512,1.741,4.512,3.2v1.421h-.142a5.942,5.942,0,0,0-4.05-1.385c-2.167,0-2.842.71-2.842,1.67,0,.746.426,1.066,2.842,1.492,2.948.5,4.511,1.883,4.511,4.263.036,3.162-2.06,5.044-5.861,5.044" transform="translate(-166.671 -14.572)"/><path class="b" d="M355.573,42.654c.036.6.071,1.421.071,1.918,0,3.765-2.38,7.14-6.927,7.14-2.913,0-4.9-1.492-4.9-3.3V46.7h.142a5.974,5.974,0,0,0,4.476,1.634c2.558,0,3.694-1.279,3.694-3.446a6.017,6.017,0,0,0-.036-.782c0-.213-.035-.6-.035-.746V43.01a3.6,3.6,0,0,1-3.659,2.238,5.776,5.776,0,0,1-5.9-6.075c0-4.227,2.629-7.673,7.176-7.673,3.517,0,5.79,2.735,5.79,6.607v2.558a15.989,15.989,0,0,1,.107,1.989m-9.414-3.979c0,1.989,1.137,3.446,2.842,3.446,1.776,0,3.055-1.421,3.055-3.837,0-2.38-1.1-3.517-2.664-3.517-1.847,0-3.233,1.634-3.233,3.908" transform="translate(-216.834 -14.636)"/><path class="b" d="M460.676,31.3c4.334,0,6.856,3.623,6.856,7.638,0,4.511-2.487,8.135-7.176,8.135-4.334,0-6.856-3.588-6.856-7.6.036-4.547,2.522-8.17,7.176-8.17m-.32,3.162c-2.167,0-3.233,1.847-3.233,4.44,0,3.126,1.1,4.973,3.588,4.973,2.167,0,3.233-1.883,3.233-4.44,0-3.126-1.137-4.973-3.588-4.973" transform="translate(-288.403 -14.507)"/><path class="b" d="M392.765,47.724c4.725,0,6.821-3.268,6.821-6.465V32.2h-3.517v8.81a4.046,4.046,0,0,1-.817,2.664,2.705,2.705,0,0,1-2.167.959,2.965,2.965,0,0,1-2.416-.959,4.361,4.361,0,0,1-.853-2.948V32.2H386.3v8.845c-.036,4.334,2.877,6.678,6.465,6.678" transform="translate(-245.074 -15.087)"/></g></svg>